<?xml version="1.0" encoding="utf-8"?>
<!-- Generator: Adobe Illustrator 27.8.1, SVG Export Plug-In . SVG Version: 6.00 Build 0)  -->
<svg version="1.1" id="Layer_1" xmlns="http://www.w3.org/2000/svg" xmlns:xlink="http://www.w3.org/1999/xlink" x="0px" y="0px"
	 viewBox="0 0 295.6 246.1" style="enable-background:new 0 0 295.6 246.1;" xml:space="preserve">
<style type="text/css">
	.st0{clip-path:url(#SVGID_00000013914499906608648760000004953121232193031072_);}
	.st1{fill:#A81C1D;}
	.st2{display:none;fill:none;stroke:#8E1A1C;stroke-width:11;stroke-miterlimit:10;}
	.st3{fill:none;stroke:#A81C1D;stroke-width:11;stroke-miterlimit:10;}
	.st4{display:none;}
	.st5{display:inline;fill:none;}
	.st6{display:inline;fill:#FFFFFF;}
	.st7{fill:none;}
	.st8{fill:#FFFFFF;}
</style>
<g id="Splash_00000067215439318302048280000003061058183202072720_">
	<defs>
		<polyline id="SVGID_1_" points="203.2,266.3 168.4,236.1 -182,238.8 -195,-34.9 202.2,-32.6 		"/>
	</defs>
	<clipPath id="SVGID_00000002365259839573495990000010134703410738541986_">
		<use xlink:href="#SVGID_1_"  style="overflow:visible;"/>
	</clipPath>
	<g id="Splash" style="clip-path:url(#SVGID_00000002365259839573495990000010134703410738541986_);">
		<path class="st1" d="M206.8,256.1c3.6,11.9,8.4,26.3,12.6,38c2.2,6.2,2.7,14.5,7.4,19.4c2.7,2.8,9.5,6.4,6.6,11.3
			c-2.6,4.4-5.6,4-9.6,2.6c-7.9-2.9-0.9-9-1.6-13.8c-2.4-14.8-9.4-31-14-45.1 M185.9,200.9c-0.1,1.1,3,2.4,1.5,3.5
			c-0.2,0.2-0.6,0.1-0.9-0.1c-1.1-0.8-1.3-4.3-2.9-4.7c-3.4-0.8-8-1.3-11,0.9c-2,1.5-3.9-2.4-5.9-2c-8,0.9-6.1,16.7-4.9,21.5
			c2.7,9.8,2.8,2.5,5.9,8.8c0.8,1.6,1.3,2.8-0.5,4.6c-2.1,2.1-5.8,2.3-7-2c-2.6-9,0.1-1.7-0.6-17.7c-0.4-10.3,4.1-20.6-9-20.9
			c-2.4-0.1-8,1.1-8.9-2.2c-0.4-1.3,3.7-6.5,3.3-6.5c-0.8,0.1-1.5-0.2-2-0.8c-0.2-0.5-0.1-1,0.3-1.4c0.1-0.2,0.1-0.6-0.1-0.7
			c0.2,0.1-14.7,1.3-12.5-1.4c1.1-1.4,5.7,0.8,5-1.6c0-0.1-0.1-0.2-0.1-0.4c0-0.1,0.1-0.4,0.3-0.4c0.4-0.1,0.9-0.2,1.3-0.3
			c0.3-0.1,0.4-0.5,0.3-0.8c-2.5-4.3-16.7-3.3-17.5-5.9c-0.4-1.5,6.9,0.6,7.7,0.3c0.4-0.1,0.6-0.4,0.7-0.9c0.1-0.8-0.3-1.4-1-1.7
			c-2.2-0.8-6.5-1.6-8-0.3c16.4-4.3-0.2-6.2-4.1-1.4c0,0,0,0.3,0.1,0.3c0.3,0.1,0.6,0.2,0.9,0.3c0.1,0,0.1,0.2,0.1,0.3
			c-6.9,0.8-5.7-5.3-2.6-5.7c2.5-0.3,10.5-4.8,9.4-8.1c0,0,0,0.1-0.1,0.1c-3.7-2-7.4,1.1-8.4,4.3c-1.4,0.7-2.8,1.2-4.4,0.5
			c0-0.1-0.1-0.2,0-0.3c1.8-3.9,6.2-5.4,7.9-9.3c0.4-3.2-14.2,8.4-15.1,8.5c-3.5-0.5,10.1-11,10.1-12.3c0-1.1-0.4-1.3-1.5-1.2
			c-1.1,0.2-2.2,0.4-3.3,0.7c0.1-2.2,8.9-3.4,7.3-7.1c-0.4-0.9-1.8,0.3-2.5-0.2c-2.2-1.4,5.2-1.9,4.1-3.6c0.7,1-1.9-1.3-1.7-1.5
			c1.7-1.1,2.5-5-1.5-4.6c-3.9,0.4-6.8-3.1-10.9-3.7c-1.6-4.6,6.3-0.5,7-3.1c0-0.1,0-0.3-0.1-0.3c-3-2.7-7.6-6.3-11.9-5.2
			c-10.6-6.3-20-3.5-31.6-9c-8.4-4-27.9,3.8-32.7-6.9c-2.4-5.3,0.7-12.4,6.9-12.2c8.5,0.2,14.9,8.2,21.9,12
			c4.7,2.5,30.1,6.7,30.4-1.6c0.1-3.2-23.4-2.2-23.7-10.3c0-0.8,0.6-1.5,1.4-1.5c9.3-0.6,15.5,6.3,24.2,9c8,2.6,6.8,3.2,13.3-0.7
			c2.6-1.6,12.2-3.1,14.4-0.1c-0.5,4.7,5.9-3.9,5.7-1.6c0,0.2-0.1,0.4-0.1,0.6c0,0.3,0.3,0.5,0.5,0.4c1-0.4,4.4-0.6,3.7-1.7
			c-0.7-1.3-5.7-2.4-7-1.7c-0.5,0.2-1,0-1.2-0.5c0-0.1,0.1-0.3,0.1-0.3c2-0.1,3.7-0.7,5.2-1.9c-0.3,0.3-4.6-3.5-5.2-3.3
			c-2.5,1.2-0.8,4.5-3.7,5.5c-1-0.7-4-1.7-4.8-2.5c-0.3-0.3-0.4-0.6-0.3-1.1c0.1-0.3,0.2-0.5,0.4-0.6c0.7-0.3,1.3-0.2,1.7,0.4
			c0.3,0.8,0.9,1.4,1.8,1.6c0.2,0,0.6-0.2,0.6-0.4c-0.4-0.9-0.4-1.6,0.2-2.2c0.4,0.2,0.6,0.6,0.6,1.2c0.2,0.4,0.8,0.5,1.2,0.2
			c5.4-4.2-3.8-5.2-4-8.9c3.6,2.3,1.5,0.8,4-0.3c2.4,0.8,1.3,0.2,1.6,1.7c0.1,0.6,0.5,1.1,1,1.3c0.5,0.2,1.1,0,1.3-0.5
			c0.1-0.3,0.3-0.6,0.4-0.9c0.6-2-1.1-2.4-2.3-3.7c-0.4-0.4,5.7-3,7.7-2.5c10.9,3,1.9-6.3,8.2-6.7c3.9-0.2,6.7-12.9,6.5-13.2
			c0.3,0.3,0.3,0.7,0.8,0.9c0.2,0.1,0.4,0.1,0.6,0c0.2-0.1,0.3-0.5,0.3-0.7c-0.2-0.5-0.7-0.8-0.8-1.3c-0.1-0.3,0-0.6,0.4-0.8
			c0.1-0.1,0.2-0.1,0.4-0.1c0.3,0.8,1,1.2,2,1.3c3.6-0.7,0.4-10.7,0.8-10.4c0.9,1.1,1.8,1.1,2.7,0.2c0.1-0.2,0.1-0.3,0.1-0.5
			c2.3,0.3,4.1,2.3,5,4.2c1.2,0.5,7.5-1.1,8.1,0.6c0.2,0.5,0.3,1,0.5,1.5c0.2,0.7,0.9,0.9,1.5,0.6c0.4-0.2,3.2-0.1,3-0.6
			c-1.2-0.6-1.5-1.2-1.1-2c0,0,0.1,0,0.2,0c1.8,1.5,6.5,12,6.5,12c2.3-2.2,7.1-4.1,5.9-6.8c-0.2-0.6,3.5,2.5,3,2.7
			c2.4-2.7,4.2-3.1,5.5-1.1c4.1,0.1,5.1-5.2,6.9-2.9c3.4,4.3-0.8,6.7,5.4,8.4c4.2,1.2,8.1-1.9,8.2-3c-0.6,1.1-0.7,2.1-0.3,3
			c0.1,0,0.2,0.1,0.4,0.1c-0.1,0,11.5-6.3,11.7-6.1c0.1,0.1,0.1,0.2,0.1,0.3c-1.4,0.7-2.1,1.7-2.1,2.9c0,0.1,0.1,0.2,0.2,0.3
			c0.7,0.6,0.8-1.4,0.9,0.4c0,0.2,0.3,0.3,0.4,0.3c0.5-0.1,1-0.3,1.4-0.7c-0.2-2.1,0.3-3.8,1.5-5c0.3,0.2,0.7,0.4,1,0.5
			c1.3,0.6,5.1-4.6,5.2-4.1c0.2,0.7,0.6,4.7-0.3,4.5c2,0.3,15,12.4,16.1,8.3c-0.1,0.5,1-3.9,0.9-2.1c0,0.3-0.1,0.5-0.1,0.8
			c0,0.7,0.9,1.3,1.5,1c4.2-2.4,8.1-5.6,11.7-8.9c2.2-2.1,5.6-9.4,8.3-10.4c0.7-0.2,1.4-0.4,2.1-0.2c0.5,0.1,0.8,0.4,0.9,0.9
			c0.3,2.1-4.7,8.1-5.9,7.7c-0.1,0-0.2-0.2-0.1-0.3c0.3-0.6,0.6-1.2,0.8-1.7c0-0.1,0-0.3-0.1-0.3c-0.1-0.1-0.3-0.1-0.4-0.1
			c-4.1,1.6-22.4,17.1-17,21.4c0.6,2.3-0.8,7.2,0.5,8.7c0.4,0.5,0.8,0.8,1.4,0.9c-0.8-0.2-3.4,2.9-3.6,3.8c0.9,1.2,1.3,1.5,0.9,2.9
			c-0.1,0.3,0.2,0.7,0.5,0.7c0.4,0,0.8,0.1,1.1,0.1c2,3.5,6.9,1.3,7.9,4.5c-1.1,1.1-1.2,2.1-0.3,3c1.3,0.1,4.5-1.5,2.5,0.8
			c-1.2,1.4,2.7,4.1,3.8,3.8c0.1,0,0.2,0.1,0.3,0.2c0.3,6.3,4.9,9.3,9.1,12.6c-0.7,0.8-2.7,0.5-3.5,1.3c-1.6,1.6,1.2,9.9,1.2,11
			c0,0-3.2,2.6-1.5,3.2c1.4,0.5,2.9,0.2,4.4,0.3c-2.4,1.6-4.7,1.6-6.8,0.1c-0.1,0-0.2,0.1-0.3,0.1c0,0,0,0.1,0,0.2
			c2.2,0.8,2.7,1.6,1.5,2.4c-0.8-0.3-1.6-0.5-2.4-0.8c-0.7-0.3-1.3,0.2-1.4,0.7c-0.2,0.1-3.7,2.8-3.6,3c0.2,1,0.7,1.6,1.5,1.8
			c1.8-1.3,3.7-1.5,5.7-0.8c0.4,0.1,0.5,0.8,0.2,1.1c-0.5,0.5-6.7,3.5-5.7,4.4c0.1,0.1,5.3,4.6,2.9,4.9c-0.5,0.1-0.9-0.1-1.3-0.1
			c-0.5-0.1-1.1,0.5-1,0.9c0.1,1.1-0.4,2.6,0.4,3.3c0.4,0.3,0.8,0.7,1.3,1.1c-1.5,0-3-0.3-4.2-1.1c-0.2-0.3-0.2-0.6-0.2-0.9
			c-1.4-0.2-2-0.7-1.8-1.7c0.2-0.1,0.5-0.2,0.7-0.3c0.2-0.1,0.3-0.3,0.2-0.5c-0.2-0.3-0.3-0.6-0.5-0.8c3.1,0,4.4-0.8,3.8-2.5
			c-3.1-1.1-0.8-0.3,0-1.1c0.2-0.2,0.2-0.7,0-0.9c-0.9-1-1.9-1.3-3.2-1c0.2-0.4,0.1-0.8-0.2-1c1.4,1.3-4.7,1.7-4.7,1.7
			c-0.4,0.6-0.5,1.2-0.4,1.8c-0.4,0.6-1.1,0.8-1.9,0.6c-1,0.2,0.1,2.8,0.4,3.5c0.3,1.5-3-2.5-4.4-0.7c-0.1,0.1-0.2,0.3-0.3,0.5
			c-2.8-1-1.5,1.7-1.8,1.5c-3.5-1.6-7.7,4-8.7,6.5c-0.4,0.1-6.1,1.6-5.7,2.6c1.2,2,1,3.4-0.5,4.2c-0.1,0-0.3,0-0.4-0.1
			c0.2-2-0.6-3.2-2.4-3.6c-0.4,0.3-0.6,0.6-0.6,1.2c-0.1,0.4-0.7,0.5-1,0.3c-0.3-0.2-0.6-0.5-0.8-0.8c-1-0.8-1.4,1.3-2.1-0.1
			c-0.4-0.8-0.9-1-1.8-0.8c-0.7,0.3-1.1,0.8-1.3,1.6c0.4,0.5,0.3,2.8,0.1,2.6c3,2.6,11.5,8.3,13,10.5c-0.6-1,4,8.7,5.1,3.4
			c0-0.1,0-0.3,0-0.4c-0.1-2.7,7.4,5,2.5,6.5c-6.8,2.2-21.8-17.4-21.5-17.7c0,0-4.4,6.8-3.1,8.3c0.2,0.3,0.7,0.3,0.9,0
			c0.3-1.2,0.8-1.6,1.6-1.2c1.1,3-6.5,10.7-6,11.6c-0.6-1.2-1.4-3.5-1.5-4.9c-0.1-0.9-2.2-1.4-2.7-0.8c-0.1,0.1-2.2,7.5-3.5,4.7
			c-1.3-2.8,3.8-11.8,3.9-15.3c0,1.2,2-3.2,0-4.8c0,0-6.4-2.2-6.3-0.6c0,0.7,9.6,5.3,4,8.1c-0.4,0.2-9.5,22.6-7.9,24
			c0.1,0.1,0.2,0.2,0.3,0.2c0.5-0.3,1.1-0.3,1.7-0.1c0.2,0.1,0.3,0.3,0.2,0.5c-0.1,0.5-0.4,0.8-0.9,0.9c-1,0-1.8-0.6-2.5-1.2
			c-0.3-2.7-2-3.4-0.4-1.9c2.2,2.2,15.4-2.7,11.6,0.1c-1.2,0.9-5.4-0.1-7.6-0.4c-3.2-0.4-1.4,1.3-3.1,1.4c-1.2,0.1-8.5,1.2-7.7,1.8
			c8.4,2.5-2.4,3-3.1,4.9 M119.9,161.9c-0.3-0.2,0.4,1,0,0.6C120.5,163.1,120.5,163.2,119.9,161.9z M132.9,157.5
			c0.2-1.6-0.6-2.9-2.4-3.7c-0.1-0.1-0.3-0.1-0.4,0c-0.5,0.3-1,0.6-1.3,1.1c0,0.5,0.2,0.9,0.7,1.2c0.1,0.1,0,0.3,0,0.3
			c-0.2,0.2-0.4,0.4-0.7,0.2c-0.4-0.2-0.7-0.5-1.1-0.7c0.3-0.2-7.2,4-5.8,4.5c1.5,0.5,12.9,0.7,13.1-1.1
			C135.1,158.3,132.7,157.5,132.9,157.5z M128.7,154.1c0.4-0.5,0-2-0.9-1.8c-0.9,0.2-1.8,0.4-2.7,0.5c-2.2,1.4-3.7,3.4-4.3,6
			C120.8,158.9,127.7,155.1,128.7,154.1z M152.6,44.4c-0.3-0.2-0.5-0.4-0.7-0.6c-0.1-0.1-0.4-0.1-0.5,0c-0.1,0.1-0.2,0.2-0.2,0.3
			c-0.4,0.6-0.4,1.1,0.2,1.5c1.7,2.7,2.9,3.4,3.7,2C154.8,45.8,155.4,43.3,152.6,44.4z M122,161.4c0.1,0.1,0.1,0.3,0.2,0.3
			c0.7,0.2,6.4,1.7,6.5,0c0-0.2-0.1-0.4-0.2-0.5C127.6,159.9,122.7,160.6,122,161.4z M119.9,151.1c0.1,0.2,0.2,0.4,0.4,0.4
			c0.7,0.1,1.4-0.1,1.9-0.6c0,0,0-0.3,0-0.3C121.3,150.2,120.6,150.4,119.9,151.1z M114.5,123c0,0.1,0,0.1,0.1,0.2
			c0.6,0.4,1.2,0.5,1.7,0c-0.1-1.1-0.7-1.2-1.7-0.4C114.6,122.8,114.6,122.9,114.5,123z M154.6,49.8c0.9-0.4,1.1-0.7,0.6-0.8
			c-0.2,0.1-0.4,0.2-0.6,0.3C154.4,49.4,154.4,49.7,154.6,49.8z M113.3,165.8c0,0.1,0,0.1,0,0.2c0.3,0.2,0.6,0.2,0.9,0.1
			c0.1-0.1-0.2-0.5-0.4-0.5C113.5,165.5,113.3,165.6,113.3,165.8z M230.3,57.5c0,0.1,0,0.1,0,0.2c0,0,0.1,0.1,0.1,0
			c0.1-0.1,0.2-0.2,0-0.2C230.4,57.4,230.3,57.5,230.3,57.5z M208.7,177.4c-0.1,0-0.2,0-0.2,0C208.7,177.8,208.8,177.8,208.7,177.4z
			 M252.2,141.1c0,0.1,0,0.1,0,0.2c0.1,0.2,0.3,0.3,0.5,0.2c0,0,0.1-0.1,0.1-0.1c0-0.2-0.2-0.3-0.4-0.3
			C252.3,141.1,252.2,141.1,252.2,141.1z M128.3,89.1c0,0.1-0.1,0.3-0.1,0.3c0.1,0.1,0.2,0.1,0.3,0.1c0.1,0,0.2-0.2,0.1-0.3
			C128.5,89.2,128.4,89.2,128.3,89.1z M146.8,53.8c0.1,0,0.1,0,0.2-0.1c0.1-0.1,0-0.2-0.1-0.3c0,0-0.1,0-0.2,0
			C146.7,53.6,146.8,53.7,146.8,53.8z"/>
		<path class="st1" d="M279.5,53.8c-1.7,2.6-5.2,2.9-7.9,2.3c-1.1-0.2-1.9-0.9-2-2.1c-0.1-0.8-0.3-1.6-0.1-2.5
			c0.2-0.9,0.5-1.7,1-2.5c0.8-1.1,1.9-1.6,3.2-1.9c2.1-0.4,5.4-0.2,6.3,2.2C280.5,50.9,280.4,52.4,279.5,53.8z"/>
		<path class="st1" d="M174.3,351.4c-3.1-3.5-3.4-17.1-3.4-22.2c0-10.4-4-20.7-4.2-31.2c0.1-0.3,0.3-0.3,0.5-0.1
			c4.3,4.3,3.6,23.2,4.1,29.2c0.5,7.1,4.2,14.2,4.8,21c0.1,1.2-0.3,2.3-0.7,3.4C175,351.7,174.6,351.7,174.3,351.4z"/>
		<path class="st1" d="M128.9,262.7c0.6,0.3,1.1,0.6,1.6,1.1c0.9,1,1,2.2,1,3.4c-0.1,0.5-0.3,1-0.7,1.4c0.3-0.5-7,4.8-6.8,1.5
			c-0.5-1.8-0.7-3.6-0.7-5.5c0.3-1,0.8-1.8,1.6-2.3c1.4-1,2.3-0.9,3.7,0.1C128.7,262.5,128.8,262.5,128.9,262.7z"/>
		<path class="st1" d="M286.6,105.3c1.4,0.7,2,1.9,2.4,3.2c0.1,0.3,0.1,0.6,0.1,1c0,0.7-0.4,1.2-1,1.5c-2,0.8-3.2,1.2-5.7,0.4
			c-1-0.3-1.7-1.1-2.3-2c0-0.9-0.5-1.7-0.7-2.6c-0.2-1,0.1-1.8,0.8-2.5c0.5-0.5,1.2-0.8,2-0.7C283.8,103.9,285.3,104.2,286.6,105.3z
			"/>
		<path class="st1" d="M289.9,211.2c0.3-0.4,0.7-0.9,1.2-1.1c0.8-0.4,1.6-0.3,2.5-0.1c1.4,0.4,2.9,2.1,3.4,3.4
			c0.4,0.9,0.6,1.9,0.5,2.8c0,0.6-0.4,1.1-1,1.3c-0.8,0.2-1.6,0.5-2.4,0.6c-1.5,0.1-2.8-0.4-3.9-1.4c-0.5-0.5-0.7-1.2-0.9-1.9
			C289,213.8,289.3,212.1,289.9,211.2z"/>
		<path class="st1" d="M330.3,250.3c1.2-1.6,3.6-2.7,5.6-1.4c0.8,0.5,1.4,1.2,1.9,1.9c0.5,0.9,0.8,1.9,0.6,3c0,0.8-0.3,1.4-0.9,1.9
			c-0.6,0.4-1.2,0.7-2,0.7c-1.6,0.4-2.9-0.2-4-1.4c-0.9-0.8-1.5-1.9-1.7-3.2C329.8,251.2,329.9,250.7,330.3,250.3z"/>
		<path class="st1" d="M43.9,173.7c-2.2,1.4-4.2,3.3-6.8,1.2c-1.9-1.5-1.1-4-0.1-5.7c0.3-0.5,0.8-0.8,1.4-1c1.1-0.3,2.2-0.2,3.3,0.1
			c1.3,0.4,2,1.4,2.3,2.7C44.3,171.9,44.3,172.1,43.9,173.7z"/>
		<path class="st1" d="M102.9,45.7c0.9,0.6,1.6,1.4,2,2.5c0.6,1.1,0.5,2.2,0,3.3c-0.5,1.1-2.7,1.9-3.6,2.1c-0.6,0.1-1.1-0.3-1.5-0.7
			c-0.6-0.7-1.1-1.5-1.4-2.3c-0.8-1.2-0.4-2.9,0.8-3.8c0.5-0.4,1-0.8,1.6-1.2c0.5-0.4,1.1-0.4,1.6-0.2
			C102.6,45.5,102.9,45.7,102.9,45.7z"/>
		<path class="st1" d="M235.1,159.5c-0.2-0.2-0.5-0.3-0.7-0.5c-1.1-1.3-1.2-2.8-0.4-4.3c0.5-1.5,3.7-1.7,4.6-1.1
			c0.6,0.4,1.3,0.7,1.8,1.1c0.8,0.6,1.1,1.5,0.7,2.4c-0.2,0.7-1.6,3.1-2.2,4c-0.1,0.1-0.4,0.2-0.5,0.2
			C237.5,160.5,236.1,160.3,235.1,159.5z"/>
		<path class="st1" d="M171.5,246.6c0.2-0.2,0.4-0.4,0.7-0.5c0.3-0.2,0.7-0.2,1.1-0.1c1.6,0.8,2.3,3,2.7,4.6c0.2,1,0,1.8-0.8,2.4
			c-0.9,1-1.9,1.7-3.1,2.3c-0.5,0.1-0.9,0.1-1.3-0.2c-0.3-0.2-0.5-0.4-0.6-0.8C169.6,251.8,170.6,248.9,171.5,246.6z"/>
		<path class="st1" d="M336.2,189c-0.8-0.1-1.5-0.2-2.3-0.5c-1.3-0.6-1.6-0.9-2.6-2.5c-0.4-0.9-0.3-1.9,0.1-2.8
			c0.1-0.4,0.4-0.7,0.8-0.8c0.1,0,4.9-0.2,5.2,0.3c0.6,1.1,0.9,2.2,1.1,3.5c0,1-0.4,1.7-1.2,2.3C336.9,188.7,336.5,188.8,336.2,189z
			"/>
		<path class="st1" d="M299.9,87.5c-1.6,1.6-3.5,2.4-5.9,2.4c-0.9,0.1-1.8-0.2-2.5-0.7c-0.5-0.4-0.8-1-0.8-1.7
			c0-0.2,0.1-0.4,0.2-0.5c1.8-1.5,3.8-2.5,6.1-2.6c0.9-0.1,1.8,0.2,2.5,0.8c0.1,0.1,0.3,0.3,0.4,0.4
			C300.3,86.2,300.3,86.9,299.9,87.5z"/>
		<path class="st1" d="M141.2,51.3c-0.1-0.2-0.2-0.4-0.4-0.4c-0.6,0-1.1-0.2-1.6-0.4c-0.2-0.1-0.5,0.2-0.5,0.4c0,1,0,2,0,3
			c0,0.1-0.3,0.3-0.5,0.3c-0.6-0.3-1.2-0.4-1.9-0.3c-0.1,0-0.3,0.4-0.3,0.5c0.7,1.4,1.2,2.3,1.3,3.9c0,0.2-0.2,0.4-0.4,0.4
			c-0.2,0-0.6-0.2-0.6-0.4c0-0.3,0-0.5,0-0.8c0.1-1,0-1-0.9-0.8c-0.3,0.1-0.6,0.1-1,0.1c-0.2,0-0.5-0.4-0.4-0.6
			c0.2-0.7,0.4-1.3,0.5-2.1c0-0.5-0.2-0.9-0.7-1.1c-0.2-0.1-0.3-0.1-0.5-0.2c-0.1-0.6-0.1-1.1-0.1-1.7c0.4,0,0.3,0.4,0.5,0.5
			c0.2,0.2,0.7,0.2,0.8-0.1c0.1-0.7,0.4-1.3,0.9-1.8c0.3-0.1,0.4,0.3,0.6,0.4c0.2,0.2,0.5,0.1,0.7,0c0.5-0.6,1.1-1.1,1.6-1.7
			c0.5-1.1,0.8-2.3,0.9-3.5c-0.5-1.6,1.1,4.1,0.6,3.5c0.5,0.6,0.8,1.3,1.6,1.6c0.6,0.2,0.6,0.8,0,1.1
			C141.3,51,141.1,51.1,141.2,51.3z"/>
		<path class="st1" d="M172.2,7.6c0.9,0.5,1.3,1,1.5,1.5c0.4,0.9,0.2,1.8-0.6,2.4c-0.8,0.6-1.7,1.2-2.5,1.8c-0.4,0.3-0.8,0.3-1.3,0
			c-0.9-0.5-1.7-1.1-2.4-1.9c-0.8-1-0.7-3.1,0.7-4c0.3-0.2,0.6-0.3,0.9-0.4C169.9,6.8,171.1,6.9,172.2,7.6z"/>
		<path class="st1" d="M50.7,118.9c0.1-0.1,0.2-0.2,0.2-0.3c0.3-0.9,1-1.1,1.8-1.1c1.2-0.1,2.2,0.1,3.2,0.7c0.4,0.2,0.6,0.8,0.5,1.2
			c-0.3,1.4-1.3,2.2-2.5,2.8c-0.4,0.2-0.9,0.2-1.3,0.2c-0.9,0-1.8-0.3-2.6-0.8c-0.2-0.1-0.4-0.6-0.3-0.9
			C49.9,120.1,50.2,119.4,50.7,118.9z"/>
		<path class="st1" d="M253.2,163.2c-2.1-0.5-2.9-1.3-4.2-3.1c-0.5-0.6-0.5-1.3,0-2c0.6-0.8,1.8-1.2,2.8-0.8c0.4,0.1,0.7,0.4,1,0.5
			c0.9,0.4,1.2,1.1,1.4,2c0,0.6-0.1,1.1-0.5,1.6c-0.4,0.4-0.9,0.7-1.4,0.9c-0.2,0.1-0.1,0.4,0,0.5
			C253.2,163,253.5,163.1,253.2,163.2z"/>
		<path class="st1" d="M254.7,189.7c-0.2-0.5-0.8-4-0.1-4.7c0.1-0.1,0.4-0.3,0.5-0.2c1.6,0.5,2.7,1.4,3.5,2.7c0.2,0.3,0.2,0.6,0,0.9
			c-0.7,0.8-1.1,4.1-1.7,4.3c-0.5,0.2-0.8,0-1.1-0.5C255.6,191.6,254.9,190,254.7,189.7z"/>
		<path class="st1" d="M207.7,337.3c0.2-0.3,0.5-0.5,0.8-0.7c0.8-0.3,1.7,0,2.3,0.6c0.5,0.5,0.8,1.1,1,1.6c0.3,0.6,0,1.3-0.3,1.8
			c-0.3,0.4-0.7,0.8-1.1,1.1c-0.3,0.3-0.7,0.3-1.1,0.3c-1.3-0.4-2.1-1.2-2.2-2.5C206.9,338.7,207.2,338,207.7,337.3z"/>
		<path class="st1" d="M218.4,177.9c0.1,0.1,0.3,0.3,0.5,0.4c0.5,0.4,0.7,1.2,0.4,1.8c-0.2,0.4-0.5,0.9-0.9,1.3
			c-0.1,0.1-0.3,0.2-0.5,0.3c-0.9,0.1-1.8,0.1-2.6-0.4c-0.9-0.6-1.5-1.4-1.7-2.4c-0.1-0.3,0-0.6,0.2-0.9c0.1-0.1,0.2-0.2,0.3-0.3
			c1-0.9,2-1,3.2-0.3C217.7,177.5,218,177.6,218.4,177.9z"/>
		<path class="st1" d="M248.5,40.2c0.8,0.9,1.2,1.9,1.2,3.2c-0.3,1.5-0.6,3.7-1.2,5.1c-0.3,0.7-0.7,1.4-1.4,1.9c-0.3,0-0.5,0-0.8,0
			c-0.2,0-0.3-0.2-0.4-0.4C245.6,47.2,247.6,42.3,248.5,40.2z"/>
		<path class="st1" d="M258.9,35c0.2,0.2,0.4,0.3,0.6,0.5c0.8,0.5,0.7,1.5,0.3,2.1c-0.2,0.3-0.4,0.5-0.6,0.8c-0.4,0.5-1,0.6-1.6,0.6
			c-0.6,0-1.3,0.1-1.8-0.4c-0.2-0.2-0.4-0.4-0.5-0.6c-0.5-1.1-0.4-2.1,0.1-3.2c0.3-0.6,1.1-0.8,1.7-0.7
			C257.8,34.2,258.4,34.5,258.9,35z"/>
		<path class="st1" d="M259.2,167.2c-1,1.6-1.3,3.2-1,5c0,0.2-0.1,0.4-0.2,0.5c-0.1,0.1-0.2,0.2-0.3,0.2c-0.1,0-0.3-0.1-0.3-0.2
			c-1.2-3-2.2-4.8-1.6-8c0.2-0.2,0.5-0.2,0.7-0.2c0.4,0,0.9,0.1,1.3,0.2c0.4,0.1,0.7,0.3,0.8,0.7C258.8,166,259,166.5,259.2,167.2z"
			/>
		<path class="st1" d="M267.6,251.9c0,0.5,0,1.1,0,1.7c0,0.5-0.3,0.8-0.8,1c-0.2,0.1-0.4,0-0.5,0c-0.8-0.4-1-1.1-1.1-1.9
			c0.3-1,0.6-2,0.6-3.1c-0.5-2.1-1.8-5.1-0.5-7c0.1-0.1,0.2-0.1,0.3-0.1c0.1,0,0.1,0,0.2,0.1C267.4,245.6,265.8,249,267.6,251.9z"/>
		<path class="st1" d="M271,116.9c0.8-0.8,1.8-1.2,2.8-1.7c0.2-0.1,0.5-0.1,0.7,0c0.4,0.2,0.8,0.4,1.2,0.6c1,0.7,1,1,0.3,2
			c-0.5,0.7-0.9,1.4-1.5,2c-0.2,0.2-0.4,0.3-0.7,0.4l0,0c0-1.1-1.7-0.5-2-1.5C271.2,116.8,270.9,116.1,271,116.9z"/>
		<path class="st1" d="M234.7,263.7c-0.1-0.9-0.2-1.8-0.2-2.7c0-1.3,0.9-1.5,1.9-1.2c0.2,0.1,0.5,0.2,0.7,0.4c0.6,0.4,0.9,0.9,1,1.6
			c0.1,1.2,0.2,2.4,0.4,3.6c0,0.2-0.1,0.4-0.2,0.5c-0.1,0.2-0.6,0.2-0.7,0.1C235.8,264.9,235.1,264.8,234.7,263.7z"/>
		<path class="st1" d="M222.7,377.3c0.2,0.2,0.3,0.3,0.5,0.4c1.1,1.2-0.5,2.4-1.4,2.8c-1.1,0.6-2.2,0.3-3.1-0.8
			c-0.5-0.6-0.3-1.6,0.2-2.1c0.3-0.3,0.6-0.5,0.9-0.7c0.6-0.5,1.2-0.4,1.8-0.1C222.1,377,222.4,377.2,222.7,377.3z"/>
		<path class="st1" d="M294.3,246.8c0.1-0.1,0.3-0.4,0.6-0.6c0.3-0.3,0.7-0.3,1.1-0.2c0.9,0.3,1.4,0.8,1.7,1.7
			c0.2,0.6,0.3,1.1,0.2,1.7c-0.1,0.3-0.2,0.5-0.5,0.6c-0.8,0.3-1.6,0.4-2.4,0.4c-0.5-0.2-0.8-0.7-1.1-1.1
			C293.6,248.7,293.8,247.6,294.3,246.8z"/>
		<path class="st1" d="M275.9,4.5c0.5-0.7,1-0.9,1.6-0.8c1.1,0.1,2.2,1.2,2.1,2.4c0,0.2,0,0.4,0,0.6c0,0.4-0.3,0.7-0.7,0.9
			c-0.6,0.2-1.1,0.3-1.7,0.3c-0.5,0-0.9-0.2-1.2-0.6c-0.1-0.2-0.2-0.3-0.3-0.5C275.4,5.9,275.4,5.1,275.9,4.5z"/>
		<path class="st1" d="M264.4,192.1c0.2,0.2,0.4,0.4,0.7,0.6c0.2,0.2,0.3,0.4,0.3,0.7c0,0.4-0.1,0.8-0.2,1.1
			c-0.1,0.4-0.4,0.7-0.8,0.7c-1.3,0.2-2.4-0.3-3.3-1.6c-0.1-0.2-0.2-0.5-0.3-0.7c-0.2-0.5,0.1-1.1,0.5-1.3c0.4-0.2,0.8-0.3,1.3-0.3
			C263.2,191.5,263.8,191.7,264.4,192.1z"/>
		<path class="st1" d="M206.6,12.5c-0.9-0.6-1.2-1.8-0.6-2.7c0.7-1,2-1.2,2.9-0.6c1.1,0.7,1.2,1.9,0.5,3
			C209,12.9,207.5,13.1,206.6,12.5z"/>
		<path class="st1" d="M352.8,162.2c-0.8-0.4-1-1.2-1.1-2.1c0-0.4,0.5-1.1,0.9-1.1c0.6-0.1,1.1-0.2,1.7,0c0.7,0.3,1.2,0.7,1.5,1.4
			c0.3,0.5,0.3,1,0,1.5c-0.3,0.6-0.7,0.9-1.3,1C353.9,162.8,353.3,162.6,352.8,162.2z"/>
		<path class="st1" d="M274.2,80.8c-0.2-0.2-0.4-0.3-0.6-0.5c-0.4-0.4-0.5-0.9-0.5-1.4c0-0.3,0.1-0.5,0.3-0.7c0.3-0.2,0.6-0.5,1-0.6
			c0.9-0.4,1.7-0.2,2.3,0.4c0.3,0.2,0.4,0.6,0.5,1c0.2,0.8,0.1,1.2-0.6,1.7c-0.2,0.1-0.4,0.3-0.7,0.4
			C275.4,81.4,274.8,81.3,274.2,80.8z"/>
		<path class="st1" d="M310.5,137.4c0.4,0.3,0.7,0.5,1,0.8c0.3,0.2,0.3,0.8-0.1,1c-0.5,0.4-1.1,0.7-1.7,0.8c-0.3,0.1-0.6,0-0.9-0.1
			c-1-0.4-1.7-1.2-2.2-2.1c-0.2-0.3,0.1-0.8,0.4-1c1-0.4,2-0.4,3,0.2C310.2,137.1,310.4,137.3,310.5,137.4z"/>
		<path class="st1" d="M231.3,36.1c-0.7,0.3-1.3,0.5-2,0.4c0,0-0.1-0.1,0-0.2c0.8-1.7,0.3-3.5,1.9-4.9c0.1-0.1,0.6-0.1,0.7,0
			c0.3,0.5,0.7,0.9,1,1.4c0.3,0.5,0.2,1-0.1,1.4C232.3,34.9,231.9,35.5,231.3,36.1z"/>
		<path class="st1" d="M328.3,122.3c-0.2,0.2-0.4,0.4-0.6,0.6c-0.6,0.5-1.5,0.5-2.1-0.1c-0.4-0.5-0.8-1-1-1.6c-0.1-0.2,0-0.5,0-0.8
			c0-0.3,0.2-0.5,0.4-0.6c0.6-0.3,1.2-0.4,1.9-0.3c0.2,0,0.5,0.1,0.7,0.3c0.3,0.3,0.5,0.6,0.8,0.9c0.4,0.4,0.4,0.9,0.1,1.4
			C328.4,122.1,328.4,122.2,328.3,122.3z"/>
		<path class="st1" d="M268.6,150.4c-2.2-2.1-1.8-1.3-4.1-2.9c0,0-0.1-0.1-0.1-0.2c0-0.1,0.1-0.2,0.2-0.3c0.5-0.3,4,0,4.5,0.1
			c0.2,0.1,0.4,0.1,0.5,0.3c0.5,0.8,0.9,1.6,0.9,2.5c0,0.2-0.1,0.4-0.1,0.6c0,0.2-0.5,0.4-0.6,0.4
			C269.4,150.7,269,150.5,268.6,150.4z"/>
		<path class="st1" d="M292.6,157.3c0.4,0.4,1.1,0.8,1.8,1.3c0.1,0.1,0.2,0.4,0.1,0.5c-0.6,0.7-1.4,0.9-2.5,0.4
			c-1.2,0-2-0.6-2.7-1.5c-0.2-0.2-0.1-0.5,0-0.7c0.2-0.4,0.5-0.6,0.8-0.8c0.1-0.1,0.3-0.1,0.4-0.1
			C291.1,156.5,291.8,156.6,292.6,157.3z"/>
		<path class="st1" d="M304.2,163.7c0.6,0.4,0.8,0.7,0.6,1.2c-0.1,0.3-0.1,0.6-0.2,1c-0.1,0.6-0.5,0.9-1,1.1
			c-0.7,0.2-1.3,0.1-1.9-0.3c-0.2-0.1-0.3-0.3-0.4-0.4c-0.2-0.4-0.4-0.8-0.4-1.3c0.1-0.7,0.6-1.2,1.4-1.5
			C303,163.3,303.6,163.4,304.2,163.7z"/>
		<path class="st1" d="M327,263.7c-0.5-0.4-0.7-0.8-0.8-1.2c0-0.3,0.1-0.6,0.1-1c0.1-1,0.4-1.3,1.4-1.4c0.3,0,0.5,0,0.7,0.2
			c0.4,0.4,0.7,0.9,1.1,1.4c0.7,0.9,0.5,1.4-0.5,2.3c-0.1,0.1-0.4,0.2-0.5,0.1C328,264,327.4,263.8,327,263.7z"/>
		<path class="st1" d="M243.9,167.1c0.5,0,0.6-0.1,0.6-0.3c0-0.3-0.2-0.6-0.4-0.6c-0.6-0.1-1.1-0.1-1.7-0.1c-0.1,0-0.3-0.1-0.3-0.2
			c-0.1-0.3-0.1-0.6-0.2-0.9c0-0.2,0.1-0.4,0.3-0.4c0.2-0.1,0.4-0.2,0.5,0c1.4,1.4,2.5,1,4,1.5c1.3,0.3,2.2,1,2.5,2.2
			c0.4,2.6-3.4-1-3.2-0.9C245.7,167.1,244.2,167.1,243.9,167.1z"/>
		<path class="st1" d="M243.9,167.1c-0.3,0.7-0.3,1.4-0.1,2.2c0.1,0.1,0.2,0.2,0.3,0.2c0.6,0.1,1-0.2,1-0.7c0,0,0.1,0,0.2-0.1
			c0.4,0.3,0.9,0.7,1.3,1.1c0.4,0.3,0.4,0.5,0,0.9c-0.1,0.1-0.3,0.3-0.4,0.4c-0.2,0.2-0.1,0.5,0.1,0.7c0.3,0.3,0.6,0.5,1,0.6
			c0.1,0.1,0.2,0.2,0.1,0.3c0,0.2-0.3,0.4-0.4,0.3c-1.8-0.3-2.9-2.5-4.6-3.2c-0.2-0.1-0.4-0.7-0.2-0.8
			C242.9,168.4,243.4,167.7,243.9,167.1z"/>
		<path class="st1" d="M182,206.3c-0.1,0.6-0.3,1.2-0.9,1.5c-0.5,0.3-1.1,0.2-1.7,0.1c-0.1,0-0.3-0.1-0.3-0.2
			c-0.3-0.5-0.7-0.9-1-1.4c-0.1-0.1,0-0.3,0-0.4c0.1-0.9,1.1-1.7,1.9-1.5c0.5,0.1,1,0.3,1.3,0.7C181.6,205.5,181.8,205.9,182,206.3z
			"/>
		<path class="st1" d="M98.7,144.4c-1.7,0.1-3.6,1.7-5.2,2.3c-0.6,0.8,5,1.5,4.2,2c-0.4,0-0.9-0.1-1.3-0.2c-0.1,0-0.3-0.1-0.3-0.2
			c-0.2-0.5-0.4-1-0.5-1.4c0-0.1-3.5-0.2-3.4-0.2c0.9-0.7,4.2-1.7,5.4-2.4C98,144.3,98.4,144.3,98.7,144.4z"/>
		<path class="st1" d="M303.1,110.9c-0.2-0.2-0.3-0.3-0.5-0.4c-0.5-0.5-0.6-1.3-0.3-1.9c0.1-0.1,0.1-0.2,0.2-0.3
			c0.2-0.1,0.5-0.2,0.7-0.3c0.8-0.5,2,0.1,2.2,1.1c0.1,0.6,0.1,1.1-0.3,1.7c-0.3,0.4-1.1,0.7-1.5,0.5
			C303.5,111.1,303.3,111,303.1,110.9z"/>
		<path class="st1" d="M248,33.3c-0.3-0.4-0.7-0.5-1.1-0.8c-0.3-0.2-0.2-0.7,0.1-0.8c2.2-0.5,4.8-6.6,5.7-7.4
			c-0.1,1.8-1.5,2.9-2.4,4.1c-0.1,0.1,0,0.5,0.2,0.5c0.3,0,0.6,0,1,0c0.1,0,0.2,0.2,0.2,0.3c0,0.1-0.1,0.2-0.2,0.3
			c-0.2,0.1-0.5,0-0.8,0.1c-1.1,0.2-2.1,2.4-2.6,3.2C248,33.3,247.9,33.5,248,33.3z"/>
		<path class="st1" d="M74.1,197c0,0,0.1-0.1,0.1-0.1c0.3-0.2,0.6-0.3,0.9-0.2c0.4,0.1,0.7,0.2,1.1,0.3c0.9,0.3,1.4,1.1,1.4,2.1
			c0,0.3-0.1,0.5-0.4,0.6c-0.8,0.5-1.6,0.4-2.3-0.2c-0.7-0.6-0.7-1.5-0.9-2.3C74,197.1,74.1,197,74.1,197z"/>
		<path class="st1" d="M319.7,71.2c0.6,0.5,1.1,1.8,0.1,2.5c-0.6,0.5-1.3,0.5-2,0.2c-0.6-0.2-0.9-0.8-0.8-1.4
			c0.1-0.4,0.2-0.8,0.3-1.1c0.1-0.3,0.4-0.5,0.7-0.6C318.4,70.7,319.3,70.9,319.7,71.2z"/>
		<path class="st1" d="M264.5,66.2c-0.1-0.1-0.4-0.1-0.6-0.3c-0.4-0.2-0.6-0.7-0.4-1.2c0.1-0.2,0.2-0.3,0.3-0.5
			c0.3-0.3,0.6-0.5,1-0.4c0.7,0.2,1.5,0.3,2.3,0.3c0.2,0,0.3,0.2,0.2,0.4c-0.3,0.8-0.7,1.5-1.1,2.2c-0.2,0.2-0.5,0.3-0.7,0.1
			C265.2,66.7,264.9,66.5,264.5,66.2z"/>
		<path class="st1" d="M266.6,236.8c0.4-0.6,1.1-0.7,1.9-0.5c0.1,0,0.2,0.1,0.3,0.2c0.7,0.5,0.9,1.5,0.5,2.3
			c-0.2,0.3-0.5,0.6-0.9,0.7c-0.7,0.1-1.3,0-1.9-0.3c-0.2-0.1-0.4-0.3-0.4-0.6C266,237.8,266.1,237.3,266.6,236.8z"/>
		<path class="st1" d="M212,191.9c0.2,0.1,0.3,0.1,0.4,0.2c0.7,2.1,0.6,2-0.4,4.1c0,0.1-0.2,0.1-0.3,0.1c-0.1,0-0.2-0.1-0.3-0.2
			c-0.4-1-0.7-4.3,0.1-5.2C211.6,190.6,211.8,192.2,212,191.9z"/>
		<path class="st1" d="M67.3,156.4c0.5,0.4,0.6,0.8,0.5,1.2c-0.3,0.6-0.7,0.9-1.3,1c-0.7,0.1-1.3,0-1.9-0.4c-0.6-1.3-0.3-2,0.8-2.2
			c0.4-0.1,0.8-0.2,1.1,0C66.9,156.2,67.2,156.3,67.3,156.4z"/>
		<path class="st1" d="M132.5,59.4c-0.7-0.6-1.1-1.4-1.4-2.2c-0.1-0.3,0-0.8,0.3-1c0.2-0.1,0.4-0.2,0.5-0.1c0.7,0.6,1.4,1.1,2.2,1.6
			c0.3,0.1,0.4,0.4,0.3,0.6c-0.2,0.4,0,0.9-0.1,1.3c0,0.2-0.4,0.4-0.6,0.3C133.3,59.8,132.9,59.6,132.5,59.4z"/>
		<path class="st1" d="M98.7,117.9c0,0.5-0.4,0.6-0.7,0.8c0,0-0.1,1.1-0.4,1.1c-1,0.1-1.9,0.1-2.9,0c-0.1,0-0.2-0.2-0.3-0.2
			c0-0.3,0-0.6,0-1c0.1-0.8,0.8-1.4,1.7-1.3C99.1,117.7,95.7,117.9,98.7,117.9z"/>
		<path class="st1" d="M141.5,216c0.2-1.2,0.8-2.2,1.5-3.1c0.3-0.4,0.7-0.5,1.1-0.1c0.4,0.4,0.6,0.8,0.7,1.3c0,0.3,0,0.5-0.2,0.7
			c-0.8,0.7-1.7,1.1-2.7,1.3C141.8,216.1,141.7,216,141.5,216z"/>
		<path class="st1" d="M200-40.5c-0.2,0.2-0.6,0.4-0.9,0.3c-0.5-0.1-1-0.4-1.2-0.9c-0.2-0.6-0.5-1.2-0.5-1.8c0-0.2,0.2-0.5,0.5-0.5
			c0.6-0.1,1.1,0.1,1.6,0.4C200.4-42.5,200.6-41.2,200-40.5z"/>
		<path class="st1" d="M252.5,168.5c0.4,0.9,1,1.8,0.9,2.8c0,0.2-0.2,0.4-0.4,0.4c-2.1-0.4-2.3-1.3-3-3.5
			C250.9,168.2,251.7,168.3,252.5,168.5z"/>
		<path class="st1" d="M259.4,151.1c-0.5-0.3-0.8-0.6-1.3-0.9c0-0.3,0-0.7-0.1-1.1c-0.3-0.4-0.5-0.7-0.7-1.1c-0.1-0.2,0-0.6,0.2-0.7
			c0.3-0.2,0.7,0,0.8,0.2c0.1,0.2,0.1,0.4,0.2,0.5c0.1,0.4,0.4,0.6,0.8,0.8c0.8,0.3,1.6,0.3,2.4,0.5c0,0,0.1,0.1,0.1,0.2
			c0,0.1,0,0.1,0,0.2c-0.1,0.1-0.2,0.2-0.3,0.2c-0.3,0.1-0.6,0.2-0.9,0.2C260,150.2,259.8,150.6,259.4,151.1z"/>
		<path class="st1" d="M20.3,78.2c0,0.1,0.1,0.3,0.1,0.4c0,0.1-0.1,0.2-0.2,0.3c-1.2,0.5-5.4-0.7-6.1-1.4C14,77.4,14,77.2,14,77.1
			c0-0.1,0.1-0.1,0.1-0.2C16,76.4,18.6,77.3,20.3,78.2z"/>
		<path class="st1" d="M281,147.5c0.8,0.3,1.2,1.1,1.7,1.9c0.1,0.1,0.1,0.2,0.1,0.4c0,0.2-0.1,0.4-0.3,0.4c-0.6,0.1-1.1-0.2-1.7-0.3
			c-0.1,0-0.2-0.1-0.3-0.3c-0.3-0.6-0.5-1.2-0.7-1.8c-0.2-0.5-0.1-0.9,0-0.9C280.3,147,280.6,147.2,281,147.5z"/>
		<path class="st1" d="M180.1,315.8c-0.9-0.6-0.9-1.8,0-2.4c0.7-0.5,1.4-0.1,1.9,0.4c0.2,0.4,0.2,0.8,0.1,1.3
			c-0.1,0.8-1,1.3-1.8,0.8C180.2,315.9,180.2,315.8,180.1,315.8z"/>
		<path class="st1" d="M290.2,70.4c0.4-0.3,0.8-0.7,1.3-0.6c0.5,0.1,0.8,0.4,1,0.8c0.2,0.4,0.1,0.9,0,1.3c-0.1,0.3-0.6,0.6-0.9,0.5
			c-0.5-0.1-1-0.4-1.3-0.8C290,71.4,290,70.7,290.2,70.4z"/>
		<path class="st1" d="M248.9-4.2c-0.3-1.3-0.6-4,0.1-5c0.2-0.3,0.4-0.6,0.7-0.9c0.1-0.2,0.3-0.3,0.5-0.2c0.2,0.1,0.3,0.2,0.4,0.4
			C251.1-8.5,249.3-5,248.9-4.2z"/>
		<path class="st1" d="M218.9,13.2c0.4-0.4,0.7-0.6,1.1-0.5c0.1,0,0.3,0,0.4,0.1c0.8,0.6,0.9,1.7,0.4,2.4c-0.1,0.1-0.3,0.3-0.4,0.4
			c-0.3,0.2-0.7,0.1-0.9-0.1c-0.4-0.4-0.7-0.9-0.7-1.5C218.7,13.6,218.8,13.4,218.9,13.2z"/>
		<path class="st1" d="M345.9,84.6c0.1,0.1,0.2,0.2,0.3,0.3c0.2,0.4,0.2,0.7-0.1,1c-1.3,1-2.2,0.8-2.5-0.8c0.3-0.7,1-1.1,1.7-0.8
			C345.6,84.4,345.8,84.6,345.9,84.6z"/>
		<path class="st1" d="M238.4,365.8c-1.2-1.1-3.6-6.1-2.1-5.5C237.8,361,238.4,364.6,238.4,365.8z"/>
		<path class="st1" d="M202.7,360.6c-0.1,0.3-0.3,0.4-0.6,0.4c-0.3-0.3-0.6-0.7-0.8-1c-0.3-1,0-1.7,0.8-2c0.1,0,0.3,0,0.4,0.1
			C203.8,358.8,203.2,359.7,202.7,360.6z"/>
		<path class="st1" d="M222.9,11.4c-0.1-0.1-0.3-0.3-0.4-0.4c-0.5-0.5-0.3-1.3,0.4-1.6c0.2-0.1,0.5-0.1,0.8-0.1
			c0.2,0,0.4,0.1,0.5,0.3c0.3,0.3,0.4,0.7,0.4,1.1c0,0.6-0.5,1-1,0.9C223.3,11.5,223.1,11.4,222.9,11.4z"/>
		<path class="st1" d="M29.4,139.5c-0.2,0.1-3,1.6-3.4,1.6c-0.3,0-0.6-0.1-0.9-0.3c-0.1,0-0.1-0.1-0.1-0.1c-0.2-0.2-0.2-0.5,0-0.7
			c0.3-0.2,0.6-0.5,0.9-0.7C26.8,138.8,28.5,139.3,29.4,139.5z"/>
		<path class="st1" d="M232.4,340.2c-0.7-1.5-1.7-4.6-1.8-6.5c0-0.1,1.9,4.3,1.9,6C232.3,340,232.2,340.2,232.4,340.2z"/>
		<path class="st1" d="M233.5,346.9c1.8,2,3.4-0.5,2.8,5.1C235,351.2,233.9,347.8,233.5,346.9z"/>
		<path class="st1" d="M4.1,83.3c0.1-0.1,0.2-0.2,0.3-0.2c1-0.1,3.4,0.4,4.1,0.7c0.1,0.1,0.2,0.3,0.3,0.4c0,0.1-0.1,0.2-0.2,0.3
			c-0.3,0.1-0.6,0.2-0.9,0.3c-1.2-0.1-2.4-0.5-3.4-1.2C4.2,83.6,4.2,83.4,4.1,83.3z"/>
		<path class="st1" d="M98.2,141c-0.4-0.3-0.9-0.6-1.3-0.9c-0.3-0.2-0.3-0.7,0-1c0.4-0.4,0.8-0.4,1.2-0.2c0.5,0.4,1.1,0.7,1.6,1.1
			c0,0,0,0.3,0,0.3C99.2,140.7,98.7,141,98.2,141z"/>
		<path class="st1" d="M285.8,213c-0.4-0.3-0.6-0.7-0.5-1.2c0-0.4,0.4-0.8,0.9-0.9c0.1,0,0.3,0,0.4,0c0.5,0.2,1,0.9,0.9,1.4
			c0,0.1,0,0.1-0.1,0.2C287.3,213.1,286.2,213.3,285.8,213z"/>
		<path class="st1" d="M173.7,216c-0.3-0.3-0.5-0.8-0.4-1.2c0.1-0.5,0.4-0.8,0.9-0.9c0.3-0.1,0.6,0,0.9,0.2c0.1,0.1,0.2,0.2,0.2,0.3
			c-0.1,0.4-0.1,0.8-0.3,1.1c-0.2,0.4-0.5,0.6-0.9,0.6C174,216.1,173.8,216.1,173.7,216z"/>
		<path class="st1" d="M275.3,287c0.2,0.1,0.3,0.2,0.3,0.2c0.5,0.3,0.5,0.8,0.2,1.3c-0.1,0.2-0.5,0.3-0.7,0.2
			c-0.9-0.3-1.9-2.4-0.5-2.1C274.9,286.8,275.1,286.9,275.3,287z"/>
		<path class="st1" d="M293.2,125.3c0.1,0,0.1-0.1,0.2,0c0.2,0.1,0.4,0.1,0.5,0.3c0.5,0.5,0.8,1,0.9,1.7c0.1,0.2,0,0.4-0.2,0.5
			c-0.2,0.1-0.4,0.1-0.5,0.1c-0.4-0.1-0.7-0.4-0.8-0.8c-0.1-0.5-0.1-1-0.2-1.5C293,125.4,293.1,125.3,293.2,125.3z"/>
		<path class="st1" d="M73.1,54c-0.4-0.3-0.6-0.7-0.6-1.1c0-0.1,0.1-0.3,0.1-0.3c0.3-0.3,0.6-0.4,1-0.3c0.5,0.1,0.8,0.4,0.9,0.9
			c0.1,0.7-0.4,1.2-1.1,1C73.3,54.1,73.2,54,73.1,54z"/>
		<path class="st1" d="M185.9,313.9c0.2-0.1,0.4-0.1,0.5,0.1c0.3,0.6,0.4,1.3,0.4,2c0,0.2-0.1,0.4-0.2,0.5c-0.1,0.1-0.4,0.2-0.5,0.1
			c-0.4-0.4-0.7-0.9-0.6-1.5C185.7,314.7,185.8,314.3,185.9,313.9z"/>
		<path class="st1" d="M195.7,297.1c0.2-0.3,0.6-0.4,1-0.5c0.1,0,0.2,0.1,0.4,0.1c0.4,0.2,0.6,0.8,0.4,1.2c-0.1,0.3-0.6,0.5-1,0.5
			c-0.3-0.1-0.6-0.2-0.8-0.5C195.6,297.6,195.6,297.2,195.7,297.1z"/>
		<path class="st1" d="M312.9,234.1c0.3-0.4,0.7-0.5,0.9-0.2c0.2,0.2,0.4,0.5,0.6,0.8c0.2,0.6,0,1.1-0.6,1.1c-0.1,0-0.1,0-0.2,0
			c-0.6,0-1.1-0.5-0.9-1.1C312.7,234.4,312.9,234.2,312.9,234.1z"/>
		<path class="st1" d="M106.8,167.8c0.5-0.8,1-1.6,1.5-2.3c0.2-0.3,0.5-0.4,1-0.2c0.3,0.1,0.3,0.4,0.1,0.6
			C108.6,166.6,107.6,167.1,106.8,167.8z"/>
		<path class="st1" d="M267.2,201.2c0.1-0.1,0.2-0.2,0.3-0.2c0.1,0,0.3,0,0.3,0c0.5,0.5,0.7,1.2,0.5,1.9c0,0.1-0.2,0.1-0.3,0.1
			C267.2,202.7,266.8,201.9,267.2,201.2z"/>
		<path class="st1" d="M103.6,173.4c0.1-0.1,0.3-0.2,0.5-0.3c0.6-0.1,1.3,0,1.9,0.1c0.1,0,0.1,0.2,0.1,0.3c-0.1,0.4-0.4,0.6-0.7,0.5
			c-0.5-0.1-1-0.2-1.5-0.1c-0.1,0-0.2-0.1-0.2-0.2C103.5,173.7,103.6,173.6,103.6,173.4z"/>
		<path class="st1" d="M261,73.2c0.2-0.1,0.3-0.2,0.4-0.2c1,0.3,1.2,0.9,0.8,1.6c-0.1,0.2-0.3,0.2-0.5,0.2c-0.3-0.2-0.6-0.5-0.7-0.9
			C260.9,73.6,261,73.4,261,73.2z"/>
		<path class="st1" d="M238.7,362c0.3,0.1,0.6,0.2,0.7,0.6c0.4,1.4,1,2.8,1.3,4.2c-0.1-0.1-0.3-0.1-0.3-0.2
			C240.3,366.5,238.7,361.9,238.7,362z"/>
		<path class="st1" d="M213.5,186.8c-0.5-0.8-0.5-1.2,0.1-1.7c0.2-0.2,0.4-0.2,0.7-0.2c0.4,0.1,0.7,0.5,0.5,0.9
			C214.6,186.4,214.2,186.8,213.5,186.8z"/>
		<path class="st1" d="M223.1,43.3c0.5,0.1,0.6-0.4,1-0.5c0.1,0,0.1,0,0.2,0c0,0,0.1,0.1,0.1,0.1c-0.2,1.1-0.7,2-1.5,2.8
			C223.8,43.8,223.9,43,223.1,43.3z"/>
		<path class="st1" d="M145.9,40.9c0.1-0.1,0.2-0.2,0.3-0.1c0.1,0,0.2,0.1,0.3,0.2c0.4,0.5,0.7,1,1.1,1.6c0,0.1,0,0.3-0.1,0.3
			c0,0-0.2,0-0.3,0c-0.6-0.4-1-0.9-1.3-1.6C145.8,41.1,145.9,41,145.9,40.9z"/>
		<path class="st1" d="M64.6,56.6c1.3,0.1,2.6,0.4,3.8,1.1c0,0,0.1,0.1,0.1,0.2c0,0-0.1,0.1-0.1,0.1C68,58,65,57.2,64.6,56.6z"/>
		<path class="st1" d="M248.4,171.9c-0.1-0.1-0.2-0.2-0.4-0.4c-0.2-0.2,0-0.7,0.2-0.8c0.4-0.2,0.9-0.2,1.3,0.1
			c0.4,0.2,0.4,0.6,0.2,1c-0.2,0.4-0.6,0.5-1,0.3C248.6,172,248.5,172,248.4,171.9z"/>
		<path class="st1" d="M234.4,162.1c-0.8-0.3-1.1-0.8-0.7-1.2c0.5-0.1,1,0,1.5,0.3c0.5,0.2,0.5,0.7,0.2,1.1
			c-0.1,0.1-0.2,0.1-0.3,0.1C234.9,162.2,234.7,162.1,234.4,162.1z"/>
		<path class="st1" d="M294.3,119.1c-0.1-0.1-0.2-0.2-0.3-0.3c-0.2-0.2,0-0.7,0.3-0.8c0.6-0.1,0.9,0,1.2,0.6
			c0.1,0.1,0.1,0.2,0.1,0.4c0,0.2-0.2,0.4-0.3,0.4C295,119.4,294.6,119.3,294.3,119.1z"/>
		<path class="st1" d="M269.8,82.1c-0.1,0.3-0.2,0.4-0.5,0.5c-6.2,2,0.9-2.1-0.6-1.2c0.5-0.3,0.9-0.1,1,0.5
			C269.7,82,269.7,82.1,269.8,82.1c-0.2-0.1-0.4-0.2-0.7-0.2c-0.1,0-0.1,0.1-0.1,0.1C269.2,82.3,269.4,82.3,269.8,82.1z"/>
		<path class="st1" d="M212.2,44.3c-0.1,0.1-0.2,0.2-0.3,0.3c-0.1,0.1-0.4,0-0.5-0.2c-0.2-0.5-0.1-0.9,0.1-1.3
			c0-0.1,0.2-0.1,0.3-0.2c0.2,0,0.4,0.1,0.5,0.2c0.1,0.2,0.1,0.4,0.1,0.6C212.3,44,212.2,44.2,212.2,44.3z"/>
		<path class="st1" d="M79.4,152.1c0.5-0.6,1.1-0.8,1.7-0.5c0.3,0.1,0.4,0.5,0.2,0.8c-0.1,0.1-0.2,0.2-0.3,0.2
			c-0.5,0.1-1,0.1-1.5-0.2C79.4,152.3,79.4,152.2,79.4,152.1z"/>
		<path class="st1" d="M45.2,51.8c-0.5,0.1-0.8,0.2-1,0.2c-0.5,0.1-0.9-0.3-1-0.9c0-0.2,0-0.3,0.2-0.3c0.2,0,0.4,0,0.5,0.1
			C44.3,51.2,44.7,51.4,45.2,51.8z"/>
		<path class="st1" d="M98.7,144.4c0.5-1.3,1.5-1.9,2.7-2.3C102,142,99.5,144.2,98.7,144.4z"/>
		<path class="st1" d="M311.2,240.3c0.1,0.2,0.3,0.4,0.4,0.6c0.1,0.4-0.1,0.5-0.5,0.6c-0.5-0.1-0.8-0.4-0.9-0.9
			c-0.1-0.2,0.2-0.6,0.4-0.5C310.8,240.2,311,240.3,311.2,240.3z"/>
		<path class="st1" d="M284.8,134.3c-0.1-0.1-0.3-0.2-0.3-0.3c0-0.2-0.1-0.4,0-0.5c0.1-0.2,0.3-0.3,0.5-0.2c0.4,0,0.7,0.2,0.9,0.6
			c0.1,0.2,0.1,0.4,0,0.5c-0.1,0.1-0.3,0.2-0.5,0.2C285.1,134.5,284.9,134.3,284.8,134.3z"/>
		<path class="st1" d="M237,355.6c-0.1-1.7-2.1-3.2,0.6-1.8c0.4,0.2,0.5,0.7,0.2,1C237.2,354.9,236.9,355.2,237,355.6z"/>
		<path class="st1" d="M238.3,365.8c0.3,0.1,0.6,0.3,0.7,0.6c0.2,0.5,0.2,0.8-0.3,1.1c-0.2,0.1-0.3,0.2-0.5,0.2c0,0,0.1,0,0.1,0
			c-0.3-0.5-0.5-1-0.6-1.6C237.9,365.9,238.1,365.8,238.3,365.8C238.4,365.8,238.3,365.8,238.3,365.8z"/>
		<path class="st1" d="M290,119.6c0,0.1,0.1,0.2,0.2,0.4c0.1,0.2-0.2,0.5-0.4,0.5c-0.4,0-0.7-0.1-1-0.4c-0.2-0.2-0.1-0.5,0.1-0.7
			C289.3,119.3,289.6,119.2,290,119.6z"/>
		<path class="st1" d="M205.5,54c0.3,0.2,0.5,0.9,0.1,1.1c-0.3,0.2-0.6,0.3-0.9,0.3c-0.2,0.1-0.5-0.3-0.4-0.5c0.1-0.6,0.5-0.9,1-1
			C205.4,54,205.5,54,205.5,54z"/>
		<path class="st1" d="M366.1,169.7c-0.5,0-0.9,0-1.3-0.3c-0.2-0.1-0.3-0.4-0.2-0.5c0.1-0.1,0.3-0.2,0.5-0.2c0.5,0,0.9,0.5,1.4,0.7
			c0.1,0,0.2,0.2,0.1,0.3c-0.1,0.1-0.7,0.1-0.8,0C365.8,169.7,366,169.7,366.1,169.7z"/>
		<path class="st1" d="M261.1,190.5c-0.3-0.3-0.5-0.5-0.5-0.9c0-0.1,0.1-0.2,0.2-0.3c0.6-0.2,1.2,0.1,1.4,0.6c0.1,0.2,0,0.4,0,0.6
			c0,0.2-0.5,0.3-0.7,0.2C261.3,190.6,261.1,190.5,261.1,190.5z"/>
		<path class="st1" d="M258.1,135.6c0.1,0.1,0.2,0.3,0.3,0.5c0.1,0.2-0.1,0.6-0.4,0.6c-0.6,0-1-0.3-1.1-0.8c0-0.2,0-0.4,0.2-0.5
			c0.2-0.1,0.3-0.2,0.5-0.1C257.8,135.4,257.9,135.5,258.1,135.6z"/>
		<path class="st1" d="M197.1,190.9c0.4-0.3,0.8-0.6,1.4-0.5c0.3,0.1,0.4,0.3,0.3,0.5c-0.4,0.2-0.8,0.3-1.3,0.4
			c-0.1,0-0.3-0.1-0.3-0.1C197.1,191.2,197.1,191,197.1,190.9z"/>
		<path class="st1" d="M231.7,159.4c0.8,0,1.4,0,1.9,0c0,0,0.1,0.1,0.1,0.1c0,0.5-0.8,0.9-1.3,0.6
			C232.2,160,232.1,159.8,231.7,159.4z"/>
		<path class="st1" d="M228.3,258.8c0.2-0.3,0.5,1.4,0.8,1.6c0.4,0.3,0.6,0.7,0.4,1c-0.2,0.3-0.7-1.4-1-1.5
			C228.2,259.7,228.1,259.2,228.3,258.8z"/>
		<path class="st1" d="M203,267c0.5,0,0.9,0.4,1.3,0.8c0.1,0.1,0.1,0.4,0.1,0.5c0,0.3-0.3,0.4-0.5,0.4c-0.5-0.2-0.8-0.6-0.9-1.1
			C203.2,267,203.2,266.8,203,267z"/>
		<path class="st1" d="M259.6,171c-0.1-0.2-0.2-0.5-0.2-0.7c0-0.2,0.1-0.3,0.4-0.2c0.6,0.4,1,1,1.3,1.6c0,0.1,0,0.3-0.1,0.3
			c-0.1,0-0.3,0-0.3-0.1c-0.1-0.2-0.1-0.4-0.2-0.5C259.5,171.2,259.2,171,259.6,171z"/>
		<path class="st1" d="M210.2,205.3c0.1,0,0.1-0.1,0.2,0c0.6,0.2,1,0.7,0.9,1.2c0,0.1-0.3,0.3-0.4,0.3c-0.6-0.2-0.9-0.7-0.7-1.3
			C210.1,205.4,210.1,205.3,210.2,205.3z"/>
		<path class="st1" d="M299.8,205.1c0.1,0,0.2-0.1,0.3-0.1c0.3,0,0.5,0.1,0.7,0.3c0.3,0.2,0.3,0.5,0,0.8c-0.2,0.2-0.6,0.3-0.8,0.1
			C299.6,206,299.5,205.5,299.8,205.1z"/>
		<path class="st1" d="M285.4,269.9c0,0,0.1,0.1,0.1,0.1c0.2,0.2,0.3,0.4,0.2,0.7c-0.2,0.3-0.5,0.4-0.8,0.3
			c-0.5-0.2-0.6-0.6-0.4-1.1C284.8,269.7,285.1,269.6,285.4,269.9z"/>
		<path class="st1" d="M241.2,261.9c0.5,0.3,0.7,0.7,0.7,1.3c0,0.1-0.1,0.1-0.1,0.2c-0.1,0-0.3,0.1-0.3,0.1c-0.6-0.3-0.8-0.8-1-1.4
			c0-0.1,0-0.1,0.1-0.2c0.1-0.1,0.2-0.1,0.3-0.1C241,261.7,241.1,261.8,241.2,261.9z"/>
		<path class="st1" d="M235.1,264.4c-0.1,0.1-0.2,0.2-0.3,0.3c-0.1,0.2-0.3,0.2-0.5,0.2c-0.5-0.2-0.9-0.5-0.9-1.1
			c-0.1-1.5-0.8-1.4,1.2-0.1l0-0.1C235,264.5,235.2,264.8,235.1,264.4z"/>
		<path class="st1" d="M309.2,153.3c0.3,0.2,0.3,0.6,0,0.8c-0.2,0.2-0.5,0.1-0.7-0.1c-0.2-0.3-0.3-0.7,0-0.8
			C308.7,153.1,309,153.1,309.2,153.3z"/>
		<path class="st1" d="M268.1,142.3c-0.1,0.1-0.3,0.2-0.4,0.3c-0.4,0.2-0.9,0-0.9-0.5c0-0.2,0.1-0.4,0.3-0.4c0.3-0.2,1,0.1,1.1,0.5
			C268.2,142.2,268.2,142.2,268.1,142.3z"/>
		<path class="st1" d="M254.7,189.6c-0.3-0.1-0.4,0.2-0.6,0.3c-0.4,0.2-0.8,0-0.9-0.4c-0.1-0.3-0.1-0.6,0.2-0.9
			C253.9,188.8,254.4,189.2,254.7,189.6C254.7,189.7,254.7,189.6,254.7,189.6z"/>
		<path class="st1" d="M253,73.2c0.6-0.6,1.2-0.6,1.9-0.3c0.1,0.1,0.2,0.2,0.1,0.3c0,0-0.1,0.1-0.1,0.1
			C254.2,73.3,253.6,73.2,253,73.2z"/>
		<path class="st1" d="M332.4,122.5c0.2-0.3,0.5-0.4,0.8-0.2c0.2,0.1,0.2,0.4,0.1,0.7c-0.2,0.3-0.5,0.4-0.8,0.2
			C332.3,123.1,332.3,122.8,332.4,122.5z"/>
		<path class="st1" d="M218.6,206.7c0.1-0.3,0.5-0.5,0.8-0.4c0.3,0.1,0.4,0.3,0.4,0.5c0.1,0.4-0.1,0.7-0.6,0.7c-0.1,0-0.2,0-0.4-0.1
			C218.6,207.4,218.5,206.9,218.6,206.7z"/>
		<path class="st1" d="M232.4,340.2c0.3,0.1,0.5,0.2,0.6,0.5c0.4,0.8,0.7,1.7,0.7,2.6C233.1,343.1,232.6,340.6,232.4,340.2
			C232.4,340.2,232.4,340.2,232.4,340.2z"/>
		<path class="st1" d="M84.9,112.1c0.1,0.2,0.1,0.4,0.1,0.6c0,0.2-0.4,0.4-0.6,0.3c-0.2-0.1-0.4-0.1-0.5-0.2
			c-0.3-0.1-0.5-0.4-0.4-0.6c0.2-0.2,0.4-0.3,0.7-0.3C84.4,111.9,84.7,112,84.9,112.1z"/>
		<path class="st1" d="M58,56.8c0.1,0,0.2-0.1,0.4-0.1c0.9,0.4,1.7,0.7,2.6,1.1C59.8,57.6,59,57.2,58,56.8z"/>
		<path class="st1" d="M293.3,78.3c0.1,0.1,0.2,0.2,0.2,0.3c0,0.2-0.1,0.3-0.2,0.4c-0.2,0.2-0.5,0.1-0.6-0.2
			C292.6,78.4,292.8,78.2,293.3,78.3z"/>
		<path class="st1" d="M62.7,106.6c-0.3-0.2-0.4-0.7-0.1-1c0.1-0.2,0.6-0.2,0.9,0c0.2,0.2,0.3,0.6,0.1,0.8
			C63.3,106.7,63,106.8,62.7,106.6z"/>
		<path class="st1" d="M326.7,129.1c0.1-0.2,0.4-0.3,0.6-0.4c0.2,0,0.3,0.2,0.3,0.4c-0.1,0.3-0.4,0.5-0.7,0.4
			C326.7,129.5,326.6,129.3,326.7,129.1z"/>
		<path class="st1" d="M238.9,40.1c0.2-0.3,0.5-0.3,0.7-0.1c0.2,0.2,0.3,0.5,0.1,0.6c-0.2,0.2-0.5,0.2-0.7-0.1
			C238.9,40.4,238.9,40.2,238.9,40.1z"/>
		<path class="st1" d="M334.7,239.4c0.1,0,0.1-0.1,0.2-0.1c0.5-0.1,0.9,0.1,1,0.6c0,0.2,0.1,0.4-0.1,0.5c-0.2,0.1-0.4,0.1-0.5,0
			c-0.4-0.2-0.6-0.5-0.6-0.9C334.7,239.5,334.7,239.5,334.7,239.4z"/>
		<path class="st1" d="M244.2,282.4c0.2-0.2,0.5-0.2,0.7,0c0.3,0.2,0.4,0.6,0.2,0.8c-0.2,0.3-0.6,0.3-0.8,0
			C243.9,283,243.9,282.7,244.2,282.4z"/>
		<path class="st1" d="M274,104.3c0.4-0.1,0.8-0.3,1.3-0.3c0.2,0,0.4,0.3,0.3,0.4C275.2,105,274.4,104.6,274,104.3z"/>
		<path class="st1" d="M213.3,292.4c0.5,0.5,0.3,0.9-0.4,1.1C212.3,292.8,212.4,292.4,213.3,292.4z"/>
		<path class="st1" d="M50.4,51.3c0.1-0.1,0.2-0.2,0.3-0.2c0.5,0,1,0.4,1.1,0.9c0,0.1-0.1,0.2-0.2,0.2c-0.6,0.1-0.9-0.2-1.1-0.8
			C50.3,51.4,50.4,51.3,50.4,51.3z"/>
		<path class="st1" d="M274.2,124.3c0,0.1,0.1,0.4,0,0.4c-0.3,0.3-0.8,0.3-1.2,0c-0.1-0.1-0.1-0.2,0.1-0.3
			C273.4,124.3,273.7,124.2,274.2,124.3z"/>
		<path class="st1" d="M43.6,136.5c-0.4,0.2-0.8,0.4-1.2,0.5C40,137.8,41.7,136.4,43.6,136.5C43.6,136.6,43.6,136.5,43.6,136.5z"/>
		<path class="st1" d="M33.9,138c0.1,0,0.2,0.1,0.3,0.1c0.6,0,1.1-0.1,1.7-0.1c-30.8,4.2,17.2-1.4,0.5,0.2c-0.4,0-0.9,0.1-1.3,0.2
			C34.8,138.2,34.3,138,33.9,138z"/>
		<path class="st1" d="M243.6,377.5c-0.3-0.2-0.5-0.6-0.3-1c0.7-0.4,1-0.1,1,0.8C244.2,377.5,243.8,377.6,243.6,377.5z"/>
		<path class="st1" d="M240.1,166.3c-0.3-0.3-0.6-0.6-0.9-0.9c0.5-0.4,1-0.2,1.5,0c0.1,0,0.1,0.3,0.1,0.3
			C240.5,165.9,240.2,166.1,240.1,166.3C240,166.3,240.1,166.3,240.1,166.3z"/>
		<path class="st1" d="M98.9,117.1c-0.3-0.2-0.3-0.5-0.3-0.8c0-0.1,0.1-0.2,0.2-0.3c0.2-0.1,0.5,0,0.6,0.3c0.1,0.2,0.1,0.6-0.1,0.7
			C99.2,117.1,99,117.1,98.9,117.1z"/>
		<path class="st1" d="M39.3,137.1c-0.2,0.4-0.6,0.7-1,0.8c-0.3,0.1-0.6,0-0.9,0.1c-0.2,0-0.3,0.2-0.4,0.4c0.3-0.4,0.7-0.7,1.1-1
			C39.4,137.2,39.8,137.1,39.3,137.1z"/>
		<path class="st1" d="M198.9,187.3c0.1,0,0.1,0,0.2,0c0.4,0.2,0.6,0.5,0.7,0.8c0.1,0.4-0.1,0.5-0.6,0.4c-0.3-0.3-0.4-0.6-0.5-1
			C198.8,187.4,198.9,187.3,198.9,187.3z"/>
		<path class="st1" d="M43.4,116.6c0.6-0.4,1.2-0.2,1.8,0.1c0.1,0,0.1,0.2,0,0.3c0,0-0.1,0.1-0.1,0.1c-0.5,0-1,0-1.5-0.3
			C43.4,116.5,43.3,116.4,43.4,116.6z"/>
		<path class="st1" d="M283.6,227.2c0.1,0.1,0.2,0.2,0.3,0.4c0,0.1,0,0.3-0.1,0.3c-0.2,0.1-0.4,0.2-0.5,0.1c-0.1,0-0.2-0.3-0.3-0.4
			c-0.1-0.2,0-0.4,0.2-0.5C283.3,227.1,283.5,227.2,283.6,227.2z"/>
		<path class="st1" d="M222,38c0.2,0.2,0.3,0.4,0.2,0.7c0,0.1-0.1,0.1-0.1,0.1c-0.2,0.1-0.5-0.1-0.6-0.3c-0.1-0.1,0-0.4,0.2-0.5
			C221.8,38,221.9,38,222,38z"/>
		<path class="st1" d="M288.6,115.1c-0.3-0.2-0.4-0.4-0.2-0.6c0.1-0.2,0.5-0.3,0.6-0.2c0.2,0.2,0.2,0.5,0.1,0.7
			C289,115.2,288.8,115.2,288.6,115.1z"/>
		<path class="st1" d="M163.5,267.9c0.1,0,0.3-0.1,0.3,0c0.1,0.1,0.2,0.3,0.3,0.4c0.1,0.3,0,0.6-0.2,0.6c-0.2,0-0.3-0.1-0.4-0.3
			C163.3,268.2,163.3,268.1,163.5,267.9z"/>
		<path class="st1" d="M272.6,148c0.2-0.2,0.5-0.2,0.6,0c0.2,0.4,0,0.6-0.6,0.5C272.5,148.4,272.5,148.2,272.6,148z"/>
		<path class="st1" d="M236.3,227.4c0.1,0,0.2-0.1,0.3-0.1c0.2,0.1,0.3,0.1,0.5,0.3c0.2,0.2,0.3,0.5,0.1,0.6c-0.2,0.1-0.4,0.1-0.5,0
			c-0.1-0.1-0.3-0.2-0.4-0.4C236.3,227.6,236.3,227.5,236.3,227.4z"/>
		<path class="st1" d="M242.2,373.4c1.5,6.8-0.7-4.1-0.1-1.9c0.1,0.4,0.3,0.8,0.4,1.3C242.1,373.1,242,373.3,242.2,373.4z"/>
		<path class="st1" d="M273.4,69.8c0.2-0.2,0.4-0.3,0.6-0.1c0.1,0.1,0.1,0.4-0.1,0.5c-0.2,0.1-0.4,0.1-0.5-0.1
			C273.4,70.1,273.4,69.9,273.4,69.8z"/>
		<path class="st1" d="M259.6,242.4c-0.1-0.1-0.3-0.3-0.4-0.5c0,0,0-0.1,0-0.2c0-0.2,0.1-0.2,0.3-0.2c0.4,0.1,0.7,0.3,0.8,0.7
			c0,0.1-0.1,0.2-0.1,0.3C260,242.6,259.8,242.5,259.6,242.4z"/>
		<path class="st1" d="M174.5,284c-0.1-0.3-0.3-0.6-0.4-0.9c0-0.1,0-0.3,0.1-0.3c0.1-0.1,0.3-0.1,0.3-0.1c0.1,0.1,0.4,0.3,0.3,0.4
			C174.8,283.5,174.6,283.8,174.5,284C174.4,284,174.5,284,174.5,284z"/>
		<path class="st1" d="M235.7,360c0.2-0.5,0.3-1,0.3-1.5c0.3,0.3,0.5,0.7,0.5,1.1C236.3,359.9,236,360,235.7,360z"/>
		<path class="st1" d="M120.8,176.9c-0.2-0.1-0.3-0.2-0.3-0.4c0.1-0.1,0.2-0.2,0.3-0.2c0.3,0,0.6,0.1,0.9,0.2c0.1,0,0.1,0.2,0.1,0.3
			c0,0-0.1,0.1-0.1,0.1C121.4,177.1,121.1,177.1,120.8,176.9z"/>
		<path class="st1" d="M159.5,244.7c0.1,0,0.1,0,0.2,0c0.3,0.2,0.4,0.5,0.4,0.8c0,0.2-0.2,0.4-0.4,0.4c-0.1-0.1-0.2-0.2-0.2-0.3
			c-0.1-0.2-0.1-0.5-0.1-0.7C159.4,244.8,159.4,244.8,159.5,244.7z"/>
		<path class="st1" d="M255.5,171.5c-0.1-0.1-0.2-0.2-0.4-0.3c0,0,0-0.1,0-0.1c0,0,0.1-0.1,0.2-0.1c0.4-0.1,0.6,0.2,0.8,0.5
			C256.6,172.1,255.3,171.4,255.5,171.5z"/>
		<path class="st1" d="M269.2,125c0.2-0.3,0.5-0.3,0.8-0.3c0,0,0.1,0.1,0.1,0.1c0,0.1,0,0.1-0.1,0.1c-0.2,0.1-0.4,0.2-0.7,0.3
			c0,0-0.1,0-0.1-0.1C269.2,125.1,269.2,125.1,269.2,125z"/>
		<path class="st1" d="M215.1,191.2c-0.1-0.1-0.2-0.2-0.2-0.3c0-0.1,0.1,1.5,0.1,1.5c0.1,0,0.3,0,0.3,0.1c0.1,0.1,0.2-1.6,0.2-1.5
			c0,0.1-0.1,0.3-0.1,0.3C215.4,191.3,215.2,191.2,215.1,191.2z"/>
		<path class="st1" d="M236.8,22.5c0.1-0.2,0.3-0.2,0.5-0.2c0.1,0.1,0.1,0.3-0.1,0.4c-0.1,0.1-0.2,0.1-0.3,0.1
			C236.8,22.7,236.8,22.6,236.8,22.5z"/>
		<path class="st1" d="M104,140.8c-0.2,0.4-0.4,0.8-0.9,1c-0.2,0.1-0.3,0-0.3-0.1c0,0,0-0.1,0-0.2
			C103.2,141.3,103.6,141.1,104,140.8z"/>
		<path class="st1" d="M232.5,211c0.3-0.1,0.6,0.2,0.7,0.5c0,0.2-0.1,0.3-0.3,0.2c-0.2-0.1-0.3-0.2-0.4-0.4
			C232.4,211.2,232.5,211.1,232.5,211z"/>
		<path class="st1" d="M117.7,171.1c0-0.1-0.1-0.1-0.1-0.2c-0.1-0.4,0-0.7,0.3-0.8c0.3-0.1,0.5,0,0.6,0.2c0.1,0.2,0,0.4-0.2,0.5
			c-0.1,0.1-0.3,0.2-0.5,0.2C117.8,171.1,117.8,171.1,117.7,171.1z"/>
		<path class="st1" d="M277,97c0.2,0.1,0.2,0.2,0.2,0.3c-0.1,0.2-0.3,0.4-0.6,0.4c-0.1,0-0.1,0-0.2,0c0,0-0.1-0.1-0.1-0.2
			C276.5,97.2,276.6,96.9,277,97z"/>
		<path class="st1" d="M92,87.9c0.4,0,0.8,0.1,1.1,0.1c0.1,0,0.1,0.1,0.1,0.1c0,0.1,0,0.2-0.2,0.2C92.5,87.6,92.2,87.5,92,87.9z"/>
		<path class="st1" d="M230.6,338.9C230.2,337.9,229.6,334.6,230.6,338.9C230.5,338.6,230.6,338.9,230.6,338.9z"/>
		<path class="st1" d="M48.8,135.3c-0.6,0.2-1.2,0.4-1.7,0.8C47.4,136.2,47.9,135,48.8,135.3z"/>
		<path class="st1" d="M194.4,193.4c0,0,0.1-0.1,0.1-0.1c0.1,0,0.2,0.1,0.3,0.2c0.2,0.3,0.1,0.6-0.3,0.7c-0.2-0.1-0.3-0.2-0.3-0.4
			C194.3,193.6,194.4,193.5,194.4,193.4z"/>
		<path class="st1" d="M227.2,153.6c0.3,0.2,0.3,0.4,0.2,0.7c-0.1,0.2-0.3,0.2-0.5,0.1c-0.1-0.1-0.2-0.2-0.2-0.3c0-0.1,0-0.3,0-0.3
			C226.9,153.6,227.1,153.6,227.2,153.6z"/>
		<path class="st1" d="M247.9,145.4c-0.4-0.2-0.7,0.1-1.1,0c-0.1,0-0.2-0.1-0.2-0.2c0-0.1,0.1-0.2,0.2-0.3
			C247.2,145.1,247.6,145.2,247.9,145.4z"/>
		<path class="st1" d="M238.7,356.7c0.6,0.3,0.9,0.8,0.8,1.4C239.4,358.1,238.6,356.5,238.7,356.7z"/>
		<path class="st1" d="M248.7,38.7c-0.1-0.4,0-0.5,0.2-0.5c0.2,0,0.2,0.3,0.1,0.5C248.9,38.8,248.8,38.8,248.7,38.7z"/>
		<path class="st1" d="M189.8,293.9c0.1-0.1,0.2-0.1,0.2-0.2c0.1,0,0.1,0,0.2,0c0.1,0.2,0.2,0.3,0.2,0.5c-0.1,0.2-0.2,0.2-0.4,0.1
			C189.9,294.2,189.9,294,189.8,293.9z"/>
		<path class="st1" d="M247.6,174.7c0.1,0,0.2-0.1,0.3-0.1c0.2,0,0.3,0.3,0.2,0.4c-0.1,0.1-0.3,0.1-0.3,0
			C247.6,175,247.6,174.8,247.6,174.7z"/>
		<path class="st1" d="M253.3,271.7c0,0.3,0,0.4-0.1,0.6c-0.1,0.2-0.3,0.2-0.4,0.1C252.6,271.9,252.8,271.7,253.3,271.7z"/>
		<path class="st1" d="M238.8,259.2c-0.1-0.1-0.2-0.3-0.2-0.4c0,0,0-0.1,0-0.2c0.1,0,0.2,0,0.3,0c0.2,0.1,0.3,0.2,0.2,0.4
			C239.1,259.2,239,259.3,238.8,259.2z"/>
		<path class="st1" d="M248,33.3c-0.3,0.5-0.5,1-0.8,1.5C247.1,34,247.6,33.7,248,33.3z"/>
		<path class="st1" d="M62,112.8c0-0.2-0.1-0.4,0-0.5c0-0.1,0.2-0.1,0.3-0.1c0.2,0.1,0.3,0.2,0.5,0.3c0.1,0.1,0,0.4-0.2,0.4
			C62.4,112.9,62.2,112.8,62,112.8z"/>
		<path class="st1" d="M84.8,91.4c0.2,0.2,0.2,0.4,0.1,0.5c-0.1,0.1-0.4,0.1-0.5-0.1c-0.1-0.2-0.1-0.4,0.1-0.5
			C84.6,91.4,84.7,91.4,84.8,91.4z"/>
		<path class="st1" d="M237.1,17.4c0-0.3,0.1-0.6,0.2-0.9c0,0,0.1-0.1,0.1,0c0,0,0.1,0.1,0.1,0.1C237.1,16.9,237,17.1,237.1,17.4z"
			/>
		<path class="st1" d="M254.1,55c0-0.1-0.1-0.2-0.1-0.3c0-0.2,0.3-0.3,0.4-0.1C254.5,54.9,254.5,55,254.1,55z"/>
		<path class="st1" d="M284.6,279.7c0.1,0,0.2-0.1,0.3-0.1c0.4,0.3,0.3,0.5-0.2,0.6c-0.1,0-0.2-0.1-0.2-0.2
			C284.5,279.9,284.5,279.8,284.6,279.7z"/>
		<path class="st1" d="M238.8,356.7c-0.4-0.3-0.5-0.6-0.3-1C239.1,356,239,356.2,238.8,356.7C238.7,356.7,238.8,356.7,238.8,356.7z"
			/>
		<path class="st1" d="M221.4,45.7c0.1-0.1,0.3-0.1,0.3,0.1c0,0.1-0.1,0.2-0.2,0.3c0,0-0.1,0-0.2,0
			C221.2,45.9,221.2,45.7,221.4,45.7z"/>
		<path class="st1" d="M264.9,94c0.1-0.2,0.4-0.3,0.6-0.2c0.1,0,0.1,0.3,0,0.3c-0.1,0.1-0.3,0.1-0.5,0.2
			C265,94.2,264.9,94.1,264.9,94z"/>
		<path class="st1" d="M317.5,229.8c0,0,0.1,0,0.1,0c0.3,0,0.5,0.2,0.5,0.4c0,0.1,0,0.3-0.1,0.3c-0.1,0-0.3,0-0.3-0.1
			c-0.1-0.1-0.2-0.3-0.3-0.5C317.5,229.9,317.5,229.8,317.5,229.8z"/>
		<path class="st1" d="M248-0.2c-0.1-0.3-0.2-0.6-0.1-0.9C248.2-1,247.8,0.2,248-0.2z"/>
		<path class="st1" d="M195.8,291.8c0.2,0.1,0.3,0.1,0.4,0.3c0,0,0,0.2-0.1,0.3c-0.1,0.1-0.4,0-0.4-0.2
			C195.7,292.1,195.8,291.9,195.8,291.8z"/>
		<path class="st1" d="M235.7,282.9c0.3,0.2,0.4,0.6,0.2,0.8c0,0-0.1,0-0.2,0C235.3,283.4,235.3,282.9,235.7,282.9z"/>
		<path class="st1" d="M253.2,163.2c0.4,0.2,0.9,0.5,1.3,0.7c0,0,0,0.2,0,0.4C254.1,163.9,253.6,163.5,253.2,163.2z"/>
		<path class="st1" d="M239.9,163.4c0,0.1,0.1,0.2,0.1,0.3c-0.1,0-0.2,0-0.4,0c-0.2,0-0.3-0.2-0.4-0.4c0-0.2,0.1-0.2,0.3-0.1
			C239.7,163.2,239.8,163.3,239.9,163.4z"/>
		<path class="st1" d="M237.5,19.3c-0.1,0.4-0.2,0.7-0.2,1.1c0,0-0.1,0.1-0.1,0.1c0,0-0.1-0.1-0.1-0.1
			C237.5,20,237.7,19.6,237.5,19.3z"/>
		<path class="st1" d="M300.1,71.3c-0.1,0.2-0.2,0.2-0.4,0c0-0.1,0-0.3,0.2-0.2C300,71,300,71.2,300.1,71.3z"/>
		<path class="st1" d="M230,330.9C231.3,332.9,229.9,331.9,230,330.9L230,330.9z"/>
		<path class="st1" d="M244.1,161.6c0,0.1,0,0.3,0,0.4c-0.1,0.2-0.3,0.2-0.4-0.2c0-0.1,0.2-0.2,0.3-0.2
			C243.9,161.5,244,161.6,244.1,161.6z"/>
		<path class="st1" d="M280.3,217.7c-0.3,0.1-0.3-0.2-0.1-0.3C280.2,217.5,280.2,217.6,280.3,217.7z"/>
		<path class="st1" d="M281.3,246.8c-0.1,0.1-0.1,0.3-0.2,0.4c0,0-0.2,0-0.3-0.1c-0.1-0.1-0.1-0.4,0.1-0.4
			C281,246.7,281.1,246.8,281.3,246.8z"/>
		<path class="st1" d="M295.4,111.3c0-0.2,0.1-0.2,0.3-0.2c0,0.1,0,0.1,0,0.1C295.6,111.3,295.5,111.3,295.4,111.3z"/>
		<path class="st1" d="M288.6,252.6c0.2,0,0.3,0,0.5,0.1c0.1,0.4-0.1,0.5-0.5,0.3C288.6,252.9,288.6,252.8,288.6,252.6z"/>
		<path class="st1" d="M230.1,241.3c0,0.2,0,0.3-0.1,0.5c0,0-0.2,0-0.3,0c-0.2-0.1-0.2-0.4,0-0.5C229.8,241.3,230,241.3,230.1,241.3
			z"/>
		<path class="st1" d="M235.6,333.4c0-0.1-0.1-0.2-0.1-0.4C235.5,332.7,236.3,333.5,235.6,333.4z"/>
		<path class="st1" d="M301,224.2c-0.1-0.1-0.2-0.2-0.2-0.3c0-0.1,0.1-0.2,0.3-0.2c0.1,0,0.2,0.1,0.2,0.3
			C301.2,224.1,301.1,224.2,301,224.2z"/>
		<path class="st1" d="M339.7,135.3c0.1,0,0.2,0.1,0.3,0.1c0,0.2-0.1,0.2-0.3,0C339.6,135.4,339.7,135.4,339.7,135.3z"/>
		<path class="st1" d="M121,168.6c-0.1-0.1-0.1-0.2-0.2-0.3c0.4-0.3,0.6-0.2,0.5,0.3C121.3,168.6,121.1,168.6,121,168.6z"/>
		<path class="st1" d="M221.7,152.1c0-0.4,0.1-0.7,0.6-0.8c0.1,0,0.2,0.1,0.3,0.2c0,0,0,0.1-0.1,0.1
			C222.3,151.8,222,151.9,221.7,152.1C221.7,152.1,221.7,152.1,221.7,152.1z"/>
		<path class="st1" d="M234.4,346.2c-0.3-0.4-0.4-0.8-0.5-1.2C233.8,345.4,234.2,345.9,234.4,346.2z"/>
		<path class="st1" d="M223.1,43.3c-0.2,0.3-0.1,0.7-0.6,1C222.8,43.9,222.9,43.6,223.1,43.3z"/>
		<path class="st1" d="M97.7,119.8c0.3,0,0.6-0.1,0.9,0c0,0.3-0.3,0.2-0.4,0.2C98.1,119.8,97.9,119.8,97.7,119.8
			C97.7,119.7,97.7,119.8,97.7,119.8z"/>
		<path class="st1" d="M177.3-1.8c0,0,0.1-0.1,0.1-0.1c0,0,0.1,0.1,0.1,0.1C177.3-1.6,177.3-1.6,177.3-1.8z"/>
		<path class="st1" d="M272.5,154c-0.2-0.6,0.7,0,0.1,0.1C272.6,154.1,272.6,154,272.5,154z"/>
		<path class="st1" d="M253,141.5c-0.1,0.1-0.2,0.2-0.3,0.1c-0.1-0.1-0.1-0.2,0-0.3c0,0,0.2-0.1,0.2-0.1
			C252.9,141.3,252.9,141.4,253,141.5z"/>
		<path class="st1" d="M159.3,239.5c0.6,0.7,0.2,0.5,0.2,0.5C159.4,239.5,159.4,239.3,159.3,239.5z"/>
		<path class="st1" d="M273.1,352.1c0.5-0.2,0.2,0.7-0.1,0.3C272.9,352.2,272.9,352.1,273.1,352.1z"/>
		<path class="st1" d="M301.2,220.7c-0.1-0.2-0.1-0.3,0.2-0.2c0,0,0.1,0.1,0.1,0.2C301.4,220.8,301.3,220.8,301.2,220.7z"/>
		<path class="st1" d="M249.1,152.2c0.1-0.1,0.2-0.2,0.3-0.2c0.1,0,0.2,0.1,0.2,0.2c0,0.1-0.2,0.1-0.3,0.2
			C249.2,152.3,249.2,152.3,249.1,152.2z"/>
		<path class="st1" d="M295.1,198.2c0.2-0.1,0.2,0,0.1,0.2C295.1,198.4,295.1,198.3,295.1,198.2z"/>
		<path class="st1" d="M316.4,204.2c0.1,0,0.2,0.1,0.3,0.1c0.1,0.1,0,0.2-0.1,0.2c-0.1-0.1-0.2-0.1-0.3-0.2
			C316.3,204.4,316.4,204.3,316.4,204.2z"/>
		<path class="st1" d="M111,136c-0.1-0.1-0.1-0.2,0.1-0.3c0,0,0.1,0,0.2,0c0.1,0.1,0.1,0.2-0.1,0.3C111.1,136.1,111,136,111,136z"/>
		<path class="st1" d="M193,192.2c0.2-0.1,0.3,0,0.3,0.3c0,0.2-0.1,0.2-0.2,0.2c0,0-0.1-0.1-0.1-0.1C193,192.4,193,192.3,193,192.2z
			"/>
		<path class="st1" d="M227.3,246.1c0,0,0.1-0.1,0.2-0.1c0.1,0,0.2,0.1,0.2,0.2c0,0-0.1,0.1-0.1,0.1
			C227.3,246.4,227.2,246.3,227.3,246.1z"/>
		<path class="st1" d="M260.2,133.2c0,0.1-0.1,0.3-0.1,0.3c-0.3-0.1-0.1-0.2,0-0.3C260.1,133.2,260.1,133.2,260.2,133.2z"/>
		<path class="st1" d="M237.9,358.5c0.2,0,0.3,0.2,0.4,0.3c0.1,0.1,0,0.3-0.2,0.3c0,0-0.1-0.1-0.1-0.1
			C238.2,358.7,238.1,358.5,237.9,358.5z"/>
		<path class="st1" d="M265.2,90c0,0,0.1-0.1,0.1-0.1c0,0,0.1,0.1,0.1,0.1c0,0-0.1,0.1-0.1,0.1C265.3,90.1,265.2,90,265.2,90z"/>
		<path class="st1" d="M250.5,50.9C250.8,50.8,250.6,50.8,250.5,50.9L250.5,50.9z"/>
		<path class="st1" d="M258.7,178c0,0,0.1,0,0.1,0.1C258.8,178.2,258.3,178.2,258.7,178z"/>
		<path class="st1" d="M259.5,171c0.2,0.2,0.3,0.4,0.1,0.6c-0.1,0.1-0.2,0-0.2-0.1C259.5,171.3,259.5,171.1,259.5,171
			C259.6,171,259.5,171,259.5,171z"/>
		<path class="st1" d="M56.8,56.5c0.4-0.2,0.8-0.2,1.2,0.2C57.6,56.5,57.2,56.4,56.8,56.5z"/>
		<path class="st1" d="M56.8,56.5c-0.2-0.1-0.4-0.2-0.6-0.4c0-0.1,0.1-0.2,0.3,0C56.6,56.2,56.7,56.4,56.8,56.5z"/>
		<path class="st1" d="M354.2,237.6C354.1,237.7,354.1,237.7,354.2,237.6L354.2,237.6z"/>
		<path class="st1" d="M175.3,257.8c-0.1-0.1-0.1-0.2-0.2-0.3c-0.1-0.1-0.1-0.2,0-0.3c0.1,0,0.2,0.1,0.2,0.2
			C175.2,257.6,175.2,257.8,175.3,257.8z"/>
		<path class="st1" d="M109.2,124.2c0,0,0.1-0.1,0.1,0c0.1,0.1,0.1,0.2,0,0.2c0,0-0.1,0-0.1,0C109.2,124.3,109.2,124.2,109.2,124.2z
			"/>
		<path class="st1" d="M253.7,76.1c0,0-0.1,0.1-0.1,0.1C253.4,76,253.4,76,253.7,76.1z"/>
		<path class="st1" d="M69.9,58.3c0.1,0,0.1,0,0.2,0c0.1,0.1,0.1,0.2,0,0.2c0,0-0.1,0-0.1-0.1C69.9,58.4,69.9,58.3,69.9,58.3z"/>
		<path class="st1" d="M211.3,46.1C211,46.3,211.3,46.2,211.3,46.1L211.3,46.1z"/>
		<path class="st1" d="M175.8,262.7c0,0.2,0.1,0.4,0,0.6c-0.1,0.1-0.2,0.1-0.1-0.1C175.9,262.9,175.9,262.8,175.8,262.7z"/>
		<path class="st1" d="M229.6,335.1c0,0.1,0.1,0.2,0.1,0.3c0.2,0.4-0.4,0.2-0.3,0C229.6,335.4,229.6,335.3,229.6,335.1z"/>
		<path class="st1" d="M251.5,72.2c0.5,0.3,1,0.7,1.5,1C252.5,72.9,252,72.5,251.5,72.2z"/>
		<path class="st1" d="M118.6,161.3c0.1-0.1,0.2-0.1,0.3-0.2c0.1,0.1,0.2,0.2,0.2,0.3c0,0.1-0.2,0.2-0.3,0.2
			C118.5,161.5,118.5,161.4,118.6,161.3z"/>
		<path class="st1" d="M257.6,250.3C257.5,250.2,257.5,250.2,257.6,250.3L257.6,250.3z"/>
		<path class="st1" d="M196.7,202.9C196.8,202.8,196.8,202.8,196.7,202.9L196.7,202.9z"/>
		<path class="st1" d="M98.7,117.9c0.3,0.1,0.7,0.3,1,0.4C99.7,118.4,98.8,118,98.7,117.9z"/>
		<path class="st1" d="M-11.8,38.1C-11.7,38.3-11.7,38.2-11.8,38.1L-11.8,38.1z"/>
		<path class="st1" d="M90.4,87.6C89.6,86.9,89,88.8,90.4,87.6C90.5,87.7,90.4,87.6,90.4,87.6z"/>
		<path class="st1" d="M91.4,88.3c-0.3-0.2-0.7-0.3-0.9-0.7C90.7,87.9,91,88.1,91.4,88.3z"/>
		<path class="st1" d="M264.1,203.2C264.2,203.2,264.3,203.2,264.1,203.2L264.1,203.2z"/>
		<path class="st1" d="M92.6,88.3c0,0-0.1-0.1-0.1-0.1c0,0-0.1,0-0.1,0C92.1,88.4,92.5,88.4,92.6,88.3z"/>
		<path class="st1" d="M325.1,239.1C324.9,238.9,325,238.9,325.1,239.1L325.1,239.1z"/>
		<path class="st1" d="M59.6,54.6c0,0,0,0.1,0,0.1c-0.1,0-0.1,0-0.1,0C59.4,54.6,59.5,54.5,59.6,54.6z"/>
		<path class="st1" d="M208.5,155.2c0,0.1,0,0.1,0.1,0.2c-0.1,0-0.1,0-0.2,0C208.3,155.2,208.3,155.1,208.5,155.2z"/>
		<path class="st1" d="M110.1,87.7C110.3,87.5,110.3,87.5,110.1,87.7L110.1,87.7z"/>
		<path class="st1" d="M112.2,86.9C112.2,86.7,112.2,86.8,112.2,86.9L112.2,86.9z"/>
		<path class="st1" d="M327.8,225.4C327.9,225.4,328,225.3,327.8,225.4L327.8,225.4z"/>
		<path class="st1" d="M306.1,207.7c0,0.1,0.1,0.2,0.2,0.1c0,0,0-0.1,0-0.1C306.3,207.7,306.2,207.7,306.1,207.7z"/>
		<path class="st1" d="M316.9,209.2c0,0,0.1,0,0.1,0C316.9,209.4,316.9,209.4,316.9,209.2z"/>
		<path class="st1" d="M260.1,156.5C260,156.5,259.9,156.5,260.1,156.5L260.1,156.5z"/>
		<path class="st1" d="M289.9,152.2C290,152.3,290,152.3,289.9,152.2L289.9,152.2z"/>
		<path class="st1" d="M271.3,113.6C271.3,113.4,271.3,113.5,271.3,113.6L271.3,113.6z"/>
		<path class="st1" d="M264.2,89.4C264.2,89.3,264.2,89.3,264.2,89.4L264.2,89.4z"/>
		<path class="st1" d="M209.9,49.6c0,0,0.1-0.1,0.1-0.1C210,49.5,210,49.6,209.9,49.6z"/>
		<path class="st1" d="M267.6,82.1C267.5,82.2,265.5,83.7,267.6,82.1C267.4,82.4,267.6,82.1,267.6,82.1z"/>
		<path class="st1" d="M220.4,47c0-0.1,0-0.1,0-0.2c0,0,0.1-0.1,0.1-0.1C220.2,46.9,220.2,47,220.4,47z"/>
		<path class="st1" d="M222.3,33.8C222.2,34,222.2,33.9,222.3,33.8L222.3,33.8z"/>
		<path class="st1" d="M181.7-17.3c0,0,0,0.1,0,0.1C181.8-17.2,181.7-17.3,181.7-17.3z"/>
		<path class="st1" d="M300,62.5C300.2,62.5,300,62.5,300,62.5L300,62.5z"/>
		<path class="st1" d="M190,321.3C190.1,321.4,190.1,321.4,190,321.3L190,321.3z"/>
		<path class="st1" d="M229.5,329.7c0-0.2-0.1-0.4-0.1-0.7C229.2,328.9,229.4,329.5,229.5,329.7z"/>
		<path class="st1" d="M174.8,284.7c-0.1,0-0.1,0-0.2,0C174.8,284.8,174.8,284.8,174.8,284.7z"/>
		<path class="st1" d="M163.5,263.8c0,0-0.1,0-0.1,0C163.5,264,163.6,264,163.5,263.8C163.5,263.9,163.5,263.8,163.5,263.8z"/>
		<path class="st1" d="M248.9-4.2c-0.1-0.1-0.2-0.1-0.3,0.1c0,0,0,0.1,0.1,0.1C248.8-4.1,248.8-4.2,248.9-4.2
			C248.9-4.2,248.9-4.2,248.9-4.2z"/>
		<path class="st1" d="M20.2,165.2C20.2,165.4,20.2,165.4,20.2,165.2L20.2,165.2z"/>
		<path class="st1" d="M33.9,138c-0.1,0.1-0.1,0.2-0.2,0.2C34.1,138.3,34,138.1,33.9,138C33.9,138,33.9,138,33.9,138z"/>
		<path class="st1" d="M258.3,283.4c0.2-0.1,0.4,0,0.4,0.2C258.4,283.7,258.3,283.6,258.3,283.4z"/>
		<path class="st1" d="M231.2,258.3c0,0-0.1,0.1-0.1,0.1C231.2,258.7,231.3,258.5,231.2,258.3z"/>
		<path class="st1" d="M306.7,301.3c0,0,0-0.1,0-0.1C307,301.2,306.9,301.3,306.7,301.3z"/>
		<path class="st1" d="M114.3,167.8C114.3,167.7,114.3,167.6,114.3,167.8L114.3,167.8z"/>
		<path class="st1" d="M116.4,165.9C116.7,165.9,116.5,165.9,116.4,165.9L116.4,165.9z"/>
		<path class="st1" d="M117,163.8c0.1-0.1,0.1-0.2,0-0.3c0,0-0.1,0-0.1,0.1C116.8,163.7,116.9,163.8,117,163.8
			C117.1,163.8,117,163.8,117,163.8z"/>
		<path class="st1" d="M232.1,259.8c-0.1,0.1-0.1,0.1,0,0.2C232.1,259.9,232.1,259.9,232.1,259.8z"/>
		<path class="st1" d="M233.3,262.6c0,0,0,0.1,0,0.1C233.4,262.6,233.4,262.6,233.3,262.6C233.2,262.7,233.3,262.6,233.3,262.6z"/>
		<path class="st1" d="M260.3,178.5C260.3,178.5,260.3,178.4,260.3,178.5L260.3,178.5z"/>
		<path class="st1" d="M118.3,88.3C118.4,88.1,118.4,88.1,118.3,88.3L118.3,88.3z"/>
		<path class="st1" d="M260.4,178.4c-0.1,0-0.2,0-0.2,0C260.1,178.3,260.1,178.3,260.4,178.4C260.3,178.5,260.4,178.4,260.4,178.4z"
			/>
		<path class="st1" d="M246.8,168.5C246.6,168.2,246.9,168.6,246.8,168.5L246.8,168.5z"/>
		<path class="st1" d="M306.2,207.7c0,0-0.1,0.1-0.1,0.1C306.2,207.9,306.2,207.9,306.2,207.7C306.1,207.7,306.2,207.7,306.2,207.7z
			"/>
		<path class="st1" d="M104.6,141.2c-0.3-0.1-0.5-0.2-0.7-0.4C104.2,141.2,104.4,141.4,104.6,141.2z"/>
		<path class="st1" d="M48.8,135.3C48.8,135.1,48.8,135.3,48.8,135.3L48.8,135.3z"/>
		<path class="st1" d="M46.5,136c0.3-0.2,0.4,0.1,0.7,0.1C46.6,135.7,46.4,135.7,46.5,136z"/>
		<path class="st1" d="M253.7,166.3c0,0,0.1,0.1,0.1,0.1C253.7,166.2,253.6,166.1,253.7,166.3z"/>
		<path class="st1" d="M46.4,135.9C45.7,136.6,45.7,135.6,46.4,135.9C46.5,136,46.4,135.9,46.4,135.9z"/>
		<path class="st1" d="M238.7,283.5C238.6,283.5,238.8,283.5,238.7,283.5L238.7,283.5z"/>
		<path class="st1" d="M45.9,136.1c-0.2,0.2-0.3,0.2-0.5,0C45.4,136.3,45.6,136.3,45.9,136.1C45.9,136.1,45.9,136.1,45.9,136.1z"/>
		<path class="st1" d="M253.7,166.2c0,0,0.1,0,0.1,0.1C253.8,166.1,253.8,166.1,253.7,166.2C253.7,166.3,253.7,166.2,253.7,166.2z"
			/>
		<path class="st1" d="M249,161.3C249,161.5,249,161.3,249,161.3L249,161.3z"/>
		<path class="st1" d="M249,161.3C249,161.6,249,161.3,249,161.3L249,161.3z"/>
		<path class="st1" d="M238.7,283.4C238.7,283.5,238.7,283.5,238.7,283.4C238.7,283.5,238.7,283.5,238.7,283.4
			C238.7,283.5,238.7,283.5,238.7,283.4C238.7,283.5,238.7,283.4,238.7,283.4z"/>
		<path class="st1" d="M44.9,136.3c0.1-0.1,0.3-0.2,0.5-0.1c0,0,0-0.1,0-0.1C45,136,44.8,136.1,44.9,136.3z"/>
		<path class="st1" d="M44.8,136.2c-0.2,0-0.4,0-0.5-0.1C44.5,136.2,44.7,136.2,44.8,136.2C44.9,136.3,44.8,136.2,44.8,136.2z"/>
		<path class="st1" d="M44.4,136.1c-0.3-0.1-0.5,0.2-0.7,0.4c0,0,0,0.1,0,0.1C43.9,136.5,44.2,136.4,44.4,136.1z"/>
		<path class="st1" d="M126.9,70.2C126.9,69.9,126.9,70.3,126.9,70.2L126.9,70.2z"/>
		<path class="st1" d="M115.1,150.7c0,0,0-0.1,0-0.1C115,150.5,115,150.6,115.1,150.7C115.2,150.6,115.1,150.7,115.1,150.7z"/>
		<path class="st1" d="M247.9,145.4C249.1,145.3,248.1,144.2,247.9,145.4C247.9,145.4,247.9,145.4,247.9,145.4z"/>
		<path class="st1" d="M248.4,145C248.4,145,250.2,145.4,248.4,145C248.4,144.9,248.4,145,248.4,145z"/>
		<path class="st1" d="M249,145.1C249.1,144.8,249,145.1,249,145.1L249,145.1z"/>
		<path class="st1" d="M41,136.7c0,0-0.1,0.1-0.1,0.1C41,136.9,41,136.9,41,136.7C40.9,136.7,41,136.7,41,136.7z"/>
		<path class="st1" d="M39.4,137.1C39.4,137.1,39.3,137.2,39.4,137.1C39.4,137.2,39.4,137.2,39.4,137.1
			C39.3,137.1,39.4,137.1,39.4,137.1z"/>
		<path class="st1" d="M203.2,266.3C203.1,266.2,203.1,266.2,203.2,266.3L203.2,266.3z"/>
		<path class="st1" d="M203,267c0.1-0.2,0.1-0.5,0.2-0.7c0,0-0.1,0-0.1,0C203.2,266.5,203.2,266.8,203,267C203,267,203,267,203,267z
			"/>
		<path class="st1" d="M159.3,239.5C159.7,239.4,159.2,239.5,159.3,239.5L159.3,239.5z"/>
		<path class="st1" d="M30.5,139.1L30.5,139.1L30.5,139.1z"/>
		<path class="st1" d="M30.5,139c-0.2,0.2-0.3,0.4-0.5,0.6C30.2,139.8,30.4,139.2,30.5,139z"/>
		<path class="st1" d="M141.2,51.2C141.5,51.3,141.2,51.2,141.2,51.2L141.2,51.2z"/>
		<path class="st1" d="M89.6,87.7c0,0,0,0.1,0,0.1C89.7,87.8,89.7,87.8,89.6,87.7C89.5,87.8,89.6,87.7,89.6,87.7z"/>
		<path class="st1" d="M29.4,139.6c0.3-0.2,0.3-0.2,0.7,0C29.8,139.6,29.6,139.6,29.4,139.6C29.4,139.5,29.4,139.6,29.4,139.6z"/>
		<path class="st1" d="M159.5,242.4C159.5,242.4,159.6,242.3,159.5,242.4C159.5,242.3,159.4,242.3,159.5,242.4z"/>
		<path class="st1" d="M139.5,44.9C139.8,44.8,139.4,44.9,139.5,44.9L139.5,44.9z"/>
		<path class="st1" d="M159.5,242.3C159.5,242.3,159.5,242.4,159.5,242.3C159.5,242.4,159.5,242.3,159.5,242.3
			C159.5,242.3,159.5,242.4,159.5,242.3C159.5,242.4,159.5,242.3,159.5,242.3z"/>
		<path class="st1" d="M264.8,122.5c-0.1,0.1-0.2,0.3-0.2,0.4C264.9,122.7,264.9,122.5,264.8,122.5z"/>
		<path class="st1" d="M175.3,257.8C175.5,257.9,175.3,257.8,175.3,257.8L175.3,257.8z"/>
		<path class="st1" d="M175.1,259.2c0,0,0.1,0,0.1,0C175.1,259.1,175.1,259.1,175.1,259.2z"/>
		<path class="st1" d="M175.1,259.1C176.4,260.8,175.2,259.2,175.1,259.1C175.1,259.2,175.1,259.1,175.1,259.1z"/>
		<path class="st1" d="M175.6,259.8C175.6,259.8,175.5,259.8,175.6,259.8C175.5,259.9,175.6,259.9,175.6,259.8
			C175.6,259.7,175.6,259.8,175.6,259.8z"/>
		<path class="st1" d="M175.9,262.7C175.8,262.7,175.8,262.7,175.9,262.7C175.8,262.8,175.8,262.8,175.9,262.7
			C175.8,262.7,175.9,262.7,175.9,262.7z"/>
		<path class="st1" d="M182.4,268.5C182.3,268.6,182.4,268.5,182.4,268.5L182.4,268.5z"/>
		<path class="st1" d="M182.4,268.6C182.3,268.5,182.4,268.6,182.4,268.6L182.4,268.6z"/>
		<path class="st1" d="M163.2,263.1L163.2,263.1L163.2,263.1z"/>
		<path class="st1" d="M163.1,263.1c0.1,0.3,0.2,0.5,0.4,0.7C163.6,263.5,163.4,263.4,163.1,263.1
			C163.2,263.1,163.1,263.1,163.1,263.1z"/>
		<path class="st1" d="M174.8,284.8c-0.1-0.2-0.2-0.5-0.3-0.7c0,0-0.1,0-0.1,0C174.5,284.3,174.5,284.6,174.8,284.8z"/>
		<path class="st1" d="M92,87.8c-0.2,0.3-0.4,0.4-0.7,0.5C91.6,88.3,91.8,88.1,92,87.8C92,87.9,92,87.8,92,87.8z"/>
		<path class="st1" d="M279.2,108.7C279.3,108.9,279.2,108.7,279.2,108.7L279.2,108.7z"/>
		<path class="st1" d="M229.4,327.7c0,0-0.1,0-0.1,0C229.2,327.8,229.3,327.9,229.4,327.7z"/>
		<path class="st1" d="M279.3,108.7C279.2,108.9,279.3,108.7,279.3,108.7L279.3,108.7z"/>
		<path class="st1" d="M274,104.3c-0.3,0-0.5,0.1-0.7,0.3C273.5,104.5,273.8,104.4,274,104.3C274,104.3,274,104.3,274,104.3z"/>
		<path class="st1" d="M229.1,328.4c0.1-0.2,0.2-0.4,0.2-0.7C228.9,328.1,228.9,328.3,229.1,328.4z"/>
		<path class="st1" d="M273.3,100.1C273.3,100.2,273.3,100.1,273.3,100.1L273.3,100.1z"/>
		<path class="st1" d="M273.3,100.1C273.7,100.1,274.9,100.1,273.3,100.1C273.3,100.1,273.3,100.1,273.3,100.1z"/>
		<path class="st1" d="M229.1,328.4c0.1,0.2,0.2,0.5,0.3,0.7c0,0,0.1,0,0.1,0C229.3,328.8,229.2,328.6,229.1,328.4
			C229.1,328.4,229.1,328.4,229.1,328.4z"/>
		<path class="st1" d="M274,100.1C274,100.1,274,100.1,274,100.1C274,100.1,274,100.1,274,100.1C274,100.1,274,100.1,274,100.1
			C274.1,100.1,274,100.1,274,100.1z"/>
		<path class="st1" d="M229.5,329.7C230.9,330.8,229.7,329.8,229.5,329.7C229.5,329.7,229.5,329.7,229.5,329.7z"/>
		<path class="st1" d="M230.1,330.1c0,0.2-0.1,0.5-0.1,0.7l0.1,0C230,330.6,230.1,330.4,230.1,330.1z"/>
		<path class="st1" d="M230.7,332.1c0,0-0.1,0-0.1-0.1C230.6,332.2,230.6,332.2,230.7,332.1C230.7,332.1,230.7,332.1,230.7,332.1z"
			/>
		<path class="st1" d="M319.4,119.3L319.4,119.3L319.4,119.3z"/>
		<path class="st1" d="M319.4,119.4C319.4,119.4,319.4,119.3,319.4,119.4C319.4,119.3,319.4,119.4,319.4,119.4z"/>
		<path class="st1" d="M266.8,82.7C266.7,83,266.8,82.8,266.8,82.7L266.8,82.7z"/>
		<path class="st1" d="M229.6,335.2C229.3,335,229.5,335.2,229.6,335.2L229.6,335.2z"/>
		<path class="st1" d="M98.6,125.5C98.5,125.5,98.5,125.5,98.6,125.5L98.6,125.5z"/>
		<path class="st1" d="M230.2,336.9c0,0-0.1,0-0.1,0C230.1,337,230.1,337,230.2,336.9C230.1,336.9,230.2,336.9,230.2,336.9z"/>
		<path class="st1" d="M230.5,338.9C230.6,338.9,230.6,338.9,230.5,338.9C230.7,338.8,230.6,338.8,230.5,338.9
			C230.6,338.9,230.5,338.9,230.5,338.9z"/>
		<path class="st1" d="M231.2,340.8C231.3,340.6,231.2,340.8,231.2,340.8C231.2,340.8,231.2,340.8,231.2,340.8z"/>
		<path class="st1" d="M231.1,340.8c0,0,0.1,0,0.1,0C231.2,340.7,231.2,340.7,231.1,340.8C231.2,340.8,231.1,340.8,231.1,340.8z"/>
		<path class="st1" d="M234.1,343.7c0.1-0.3-0.1-0.4-0.4-0.4c0,0-0.1,0-0.1,0C234.1,343.7,234.2,343.9,234.1,343.7z"/>
		<path class="st1" d="M220.3,47C220.3,47,220.4,47,220.3,47C220.4,47,220.3,47,220.3,47z"/>
		<path class="st1" d="M234.1,343.7C234,343.8,233.4,345.3,234.1,343.7C234.1,343.7,234.1,343.7,234.1,343.7z"/>
		<path class="st1" d="M100.3,117.9c-0.1,0.2-0.2,0.5-0.6,0.4c0,0,0,0.1,0,0.1C99.9,118.2,100.1,118.1,100.3,117.9
			C100.3,117.9,100.3,117.9,100.3,117.9z"/>
		<path class="st1" d="M233.8,344.3c-0.1,0.1-0.3,0.2-0.2,0.4c0.1,0.2,0.2,0.2,0.4,0.3C234,344.8,233.9,344.5,233.8,344.3z"/>
		<path class="st1" d="M234.4,346.2c0.2,0.1,0.3,0.3,0.5,0.4C234.9,346.5,234.5,346.3,234.4,346.2z"/>
		<path class="st1" d="M92.5,88.3c0,0,0-0.1,0-0.1C92.4,88.2,92.4,88.3,92.5,88.3C92.6,88.3,92.5,88.3,92.5,88.3z"/>
		<path class="st1" d="M235.1,347.4c-0.1-0.3-0.1-0.5-0.2-0.8C234.7,346.9,234.8,347.2,235.1,347.4z"/>
		<path class="st1" d="M233.5,346.8C233.5,346.9,233.5,346.9,233.5,346.8C233.6,346.8,233.5,346.8,233.5,346.8
			C233.5,346.9,233.5,346.8,233.5,346.8z"/>
		<path class="st1" d="M236.2,352c-0.1,0.2-0.1,0.4,0.1,0.5C236.5,352.6,236.5,352.4,236.2,352z"/>
		<path class="st1" d="M236.2,353.3c0.1-0.2,0.1-0.5,0.2-0.7c0,0-0.1,0-0.1,0C236.3,352.8,236.2,353.1,236.2,353.3z"/>
		<path class="st1" d="M237,355.5C237.2,355.7,237,355.6,237,355.5L237,355.5z"/>
		<path class="st1" d="M98.5,125.5C98.5,125.5,98.6,125.5,98.5,125.5C98.6,125.5,98.5,125.5,98.5,125.5z"/>
		<path class="st1" d="M240,358.8c-0.1-0.2-0.3-0.4-0.4-0.7c0,0-0.1,0-0.1,0C239.6,358.5,239.8,358.7,240,358.8z"/>
		<path class="st1" d="M238.8,48.8c0,0,0,0.1,0.1,0.1C238.9,48.7,238.9,48.7,238.8,48.8z"/>
		<path class="st1" d="M238.9,48.7C238.9,48.8,238.9,48.8,238.9,48.7C239,48.7,238.9,48.7,238.9,48.7
			C238.8,48.8,238.9,48.7,238.9,48.7z"/>
		<path class="st1" d="M238,358.5c0-0.1,0-0.1,0-0.2C238.1,358.4,238.1,358.4,238,358.5C237.9,358.5,238,358.5,238,358.5z"/>
		<path class="st1" d="M238.7,361.9c0,0,0.1,0.1,0.1,0.1C238.9,361.9,238.9,361.9,238.7,361.9C238.7,362,238.7,361.9,238.7,361.9z"
			/>
		<path class="st1" d="M162,312.8c0,0-0.1-0.1-0.1-0.1C161.8,312.8,161.9,312.8,162,312.8z"/>
		<path class="st1" d="M161.9,312.8c0,0,0.1,0.1,0.1,0.1C161.9,313,161.9,312.9,161.9,312.8C162,312.8,161.9,312.8,161.9,312.8z"/>
		<path class="st1" d="M241.2,368.4C241,368.3,241.2,368.5,241.2,368.4C241.2,368.4,241.2,368.4,241.2,368.4z"/>
		<path class="st1" d="M241.2,368.5C240.5,369.1,241.2,370.1,241.2,368.5C241.2,368.4,241.2,368.5,241.2,368.5z"/>
		<path class="st1" d="M241,369.3C241.2,369.2,241.2,369.2,241,369.3C241.1,369.3,241.1,369.3,241,369.3
			C241.1,369.4,241,369.3,241,369.3z"/>
		<path class="st1" d="M242.2,373.4c0.1,0,0.1,0,0.2,0C242.3,373.5,242.3,373.4,242.2,373.4z"/>
		<path class="st1" d="M181.7-17.3C181.4-17.4,181.7-17.3,181.7-17.3L181.7-17.3z"/>
		<path class="st1" d="M300,62.5C300,62.5,300,62.5,300,62.5C300,62.5,300,62.5,300,62.5z"/>
		<path class="st1" d="M237.5,19.3C237.3,19.2,237.5,19.3,237.5,19.3L237.5,19.3z"/>
		<path class="st1" d="M237.1,17.4C237.3,17.5,237.1,17.4,237.1,17.4L237.1,17.4z"/>
		<path class="st1" d="M43.4,116.5C43.4,116.9,43.4,116.6,43.4,116.5L43.4,116.5z"/>
		<path class="st1" d="M60.9,57.7C60.9,57.7,60.9,57.6,60.9,57.7C60.9,57.6,60.9,57.7,60.9,57.7z"/>
		<path class="st1" d="M209.8,159.1c0,0,0,0.1,0,0.1C209.8,159.2,209.8,159.2,209.8,159.1z"/>
		<path class="st1" d="M209.4,155.4C209.5,155.5,209.5,155.5,209.4,155.4L209.4,155.4z"/>
		<path class="st1" d="M104.6,141.2C104.7,141,104.6,141.2,104.6,141.2L104.6,141.2z"/>
		<path class="st1" d="M231.2,258.4C231.2,258.4,231.2,258.3,231.2,258.4C231.1,258.4,231.1,258.4,231.2,258.4
			C231.2,258.3,231.2,258.4,231.2,258.4z"/>
		<path class="st1" d="M232.1,259.9c0,0-0.1,0-0.1,0C232,259.9,232,259.9,232.1,259.9C232.1,259.8,232.1,259.9,232.1,259.9z"/>
		<path class="st1" d="M271.5,119.6c0,0-0.1,0.1-0.1,0.1C271.3,119.6,271.3,119.6,271.5,119.6L271.5,119.6z"/>
	</g>
</g>
<g>
	<circle class="st1" cx="203.2" cy="124" r="29.2"/>
	<circle class="st2" cx="203.2" cy="124" r="34.8"/>
	<circle class="st2" cx="203.2" cy="124" r="57.1"/>
	<circle class="st3" cx="203.2" cy="124" r="45.9"/>
	<circle class="st3" cx="203.2" cy="124" r="68.2"/>
</g>
<g class="st4">
	<rect x="123.4" y="105.2" class="st5" width="136.9" height="37.6"/>
	<path class="st6" d="M188.2,128.5h3.8v4.3c0,0.4-0.1,0.7-0.4,1c-0.3,0.3-0.6,0.4-1.1,0.4h-2.2v8.4h-6.8v-8.4h-14.6
		c-0.5,0-0.9-0.1-1.3-0.5c-0.4-0.3-0.6-0.7-0.7-1.1l-0.8-3.8l16.9-22.7h7.4V128.5z M181.5,119c0-0.6,0-1.2,0.1-1.9s0.1-1.4,0.2-2.1
		l-9.6,13.5h9.4V119z"/>
	<path class="st6" d="M216.1,113.6c-0.2,0.4-0.5,0.7-0.8,0.9c-0.3,0.2-0.6,0.3-1.1,0.3c-0.4,0-0.8-0.1-1.2-0.4
		c-0.4-0.2-0.9-0.5-1.5-0.8c-0.6-0.3-1.2-0.6-1.9-0.8c-0.7-0.2-1.5-0.4-2.4-0.4c-1.6,0-2.8,0.3-3.5,1s-1.2,1.6-1.2,2.7
		c0,0.7,0.2,1.3,0.7,1.8c0.5,0.5,1.1,0.9,1.8,1.2c0.8,0.3,1.6,0.7,2.6,1c1,0.3,2,0.6,3,1s2,0.8,3,1.3c1,0.5,1.8,1.1,2.6,1.8
		s1.4,1.7,1.8,2.7c0.5,1.1,0.7,2.4,0.7,3.9c0,1.7-0.3,3.3-0.9,4.7c-0.6,1.5-1.4,2.7-2.5,3.8s-2.5,2-4.1,2.6s-3.5,0.9-5.5,0.9
		c-1.1,0-2.3-0.1-3.5-0.4c-1.2-0.2-2.3-0.6-3.4-1s-2.1-0.9-3.1-1.5c-1-0.6-1.8-1.2-2.5-1.9l2.5-4c0.2-0.3,0.4-0.5,0.8-0.7
		c0.3-0.2,0.7-0.3,1.1-0.3c0.5,0,1,0.2,1.5,0.5c0.5,0.3,1.1,0.7,1.7,1c0.6,0.4,1.4,0.7,2.2,1.1s1.8,0.5,3,0.5c1.5,0,2.7-0.3,3.6-1
		c0.9-0.7,1.3-1.7,1.3-3.2c0-0.9-0.2-1.5-0.7-2.1c-0.5-0.5-1.1-1-1.8-1.3c-0.8-0.3-1.6-0.7-2.6-0.9c-1-0.3-2-0.6-3-0.9
		c-1-0.3-2-0.7-3-1.2c-1-0.5-1.8-1.1-2.6-1.9c-0.8-0.8-1.4-1.7-1.8-2.9c-0.5-1.2-0.7-2.6-0.7-4.3c0-1.4,0.3-2.7,0.8-4
		c0.5-1.3,1.4-2.5,2.4-3.5c1.1-1,2.4-1.8,3.9-2.4c1.6-0.6,3.3-0.9,5.3-0.9c1.1,0,2.2,0.1,3.3,0.3c1.1,0.2,2.1,0.4,3,0.8
		c1,0.3,1.8,0.8,2.7,1.2c0.8,0.5,1.6,1,2.2,1.6L216.1,113.6z"/>
</g>
<g>
	<rect x="107.5" y="110.6" class="st7" width="136.9" height="26.7"/>
	<path class="st8" d="M135.5,136.8v-14.4l-1.2-0.2c-0.4-0.1-0.7-0.2-1-0.4s-0.4-0.5-0.4-0.9v-2.1h2.6v-1c0-1,0.2-2,0.5-2.8
		s0.8-1.6,1.4-2.2c0.6-0.6,1.4-1.1,2.3-1.4c0.9-0.3,1.9-0.5,3.1-0.5c0.4,0,0.9,0,1.2,0.1c0.4,0.1,0.8,0.1,1.2,0.3l-0.1,2.6
		c0,0.2-0.1,0.3-0.1,0.5c-0.1,0.1-0.2,0.2-0.3,0.3c-0.1,0.1-0.3,0.1-0.4,0.2s-0.3,0.1-0.5,0.1c-0.5,0-0.9,0-1.3,0.1
		c-0.4,0.1-0.7,0.3-0.9,0.5s-0.4,0.6-0.6,0.9c-0.1,0.4-0.2,0.9-0.2,1.5v0.9h4.3v3.7h-4.1v14.4H135.5z"/>
	<path class="st8" d="M155.4,118.4c1.4,0,2.6,0.2,3.8,0.6c1.1,0.4,2.1,1,2.9,1.9c0.8,0.8,1.4,1.8,1.9,2.9c0.4,1.1,0.7,2.4,0.7,3.9
		c0,1.4-0.2,2.8-0.7,3.9c-0.4,1.2-1.1,2.1-1.9,3c-0.8,0.8-1.8,1.4-2.9,1.9c-1.1,0.4-2.4,0.7-3.8,0.7c-1.4,0-2.7-0.2-3.8-0.7
		c-1.1-0.4-2.1-1.1-2.9-1.9c-0.8-0.8-1.5-1.8-1.9-3c-0.4-1.2-0.7-2.5-0.7-3.9c0-1.4,0.2-2.7,0.7-3.9c0.4-1.1,1.1-2.1,1.9-2.9
		c0.8-0.8,1.8-1.4,2.9-1.9C152.8,118.6,154.1,118.4,155.4,118.4z M155.4,133.1c1.2,0,2.2-0.4,2.8-1.3c0.6-0.9,0.9-2.2,0.9-4
		c0-1.8-0.3-3.1-0.9-4c-0.6-0.9-1.5-1.3-2.8-1.3c-1.3,0-2.2,0.4-2.8,1.3c-0.6,0.9-0.9,2.2-0.9,4c0,1.8,0.3,3.1,0.9,4
		C153.2,132.7,154.2,133.1,155.4,133.1z"/>
	<path class="st8" d="M172.7,118.7v11.5c0,0.9,0.2,1.6,0.6,2.1c0.4,0.5,1,0.7,1.8,0.7c0.6,0,1.2-0.1,1.7-0.4s1-0.6,1.5-1v-12.9h5.4
		v18.1h-3.4c-0.7,0-1.1-0.3-1.3-0.9l-0.3-1c-0.4,0.3-0.7,0.6-1.1,0.9c-0.4,0.3-0.8,0.5-1.2,0.7s-0.9,0.3-1.4,0.5
		c-0.5,0.1-1,0.2-1.6,0.2c-1,0-1.9-0.2-2.6-0.5c-0.8-0.3-1.4-0.8-1.9-1.4c-0.5-0.6-0.9-1.3-1.2-2.2c-0.3-0.8-0.4-1.8-0.4-2.8v-11.5
		H172.7z"/>
	<path class="st8" d="M188,136.8v-18.1h3.2c0.3,0,0.5,0,0.7,0.1c0.2,0,0.3,0.1,0.5,0.2c0.1,0.1,0.2,0.2,0.3,0.4
		c0.1,0.2,0.1,0.4,0.2,0.6l0.3,1.7c0.7-1,1.4-1.8,2.2-2.4c0.8-0.6,1.7-0.9,2.7-0.9c0.8,0,1.5,0.2,2,0.6l-0.7,4
		c0,0.2-0.1,0.4-0.3,0.5c-0.1,0.1-0.3,0.1-0.6,0.1c-0.2,0-0.4,0-0.7-0.1c-0.3-0.1-0.6-0.1-1-0.1c-1.4,0-2.5,0.8-3.4,2.3v11.1H188z"
		/>
	<path class="st8" d="M216.6,116.5c-0.2,0.3-0.4,0.5-0.6,0.6c-0.2,0.1-0.4,0.2-0.7,0.2c-0.3,0-0.6-0.1-0.9-0.3
		c-0.3-0.2-0.7-0.4-1.1-0.6c-0.4-0.2-0.8-0.4-1.3-0.6c-0.5-0.2-1.1-0.3-1.7-0.3c-1.1,0-1.9,0.2-2.5,0.7s-0.8,1.1-0.8,1.9
		c0,0.5,0.2,0.9,0.5,1.3c0.3,0.3,0.8,0.6,1.3,0.9c0.5,0.2,1.1,0.5,1.8,0.7c0.7,0.2,1.4,0.4,2.1,0.7c0.7,0.3,1.4,0.5,2.1,0.9
		c0.7,0.3,1.3,0.8,1.8,1.3c0.5,0.5,1,1.2,1.3,1.9c0.3,0.8,0.5,1.7,0.5,2.7c0,1.2-0.2,2.3-0.6,3.3c-0.4,1-1,1.9-1.8,2.7
		c-0.8,0.8-1.7,1.4-2.9,1.8c-1.1,0.4-2.4,0.7-3.9,0.7c-0.8,0-1.6-0.1-2.4-0.2c-0.8-0.2-1.6-0.4-2.4-0.7c-0.8-0.3-1.5-0.7-2.2-1.1
		c-0.7-0.4-1.3-0.9-1.8-1.4l1.8-2.8c0.1-0.2,0.3-0.4,0.5-0.5c0.2-0.1,0.5-0.2,0.8-0.2c0.4,0,0.7,0.1,1.1,0.3s0.8,0.5,1.2,0.7
		s1,0.5,1.5,0.7c0.6,0.2,1.3,0.3,2.1,0.3c1.1,0,1.9-0.2,2.5-0.7c0.6-0.5,0.9-1.2,0.9-2.2c0-0.6-0.2-1.1-0.5-1.5
		c-0.3-0.4-0.8-0.7-1.3-0.9s-1.1-0.5-1.8-0.6c-0.7-0.2-1.4-0.4-2.1-0.6c-0.7-0.2-1.4-0.5-2.1-0.8c-0.7-0.3-1.3-0.8-1.8-1.3
		c-0.5-0.5-1-1.2-1.3-2c-0.3-0.8-0.5-1.8-0.5-3c0-1,0.2-1.9,0.6-2.8c0.4-0.9,1-1.7,1.7-2.4s1.7-1.3,2.7-1.7s2.3-0.6,3.7-0.6
		c0.8,0,1.5,0.1,2.3,0.2c0.7,0.1,1.4,0.3,2.1,0.5c0.7,0.2,1.3,0.5,1.9,0.9c0.6,0.3,1.1,0.7,1.5,1.1L216.6,116.5z"/>
</g>
<g>
</g>
<g>
</g>
<g>
</g>
<g>
</g>
<g>
</g>
<g>
</g>
</svg>
